<svg xmlns="http://www.w3.org/2000/svg" width="1920" height="1080"><path d="M118,-232L332,-222L536,-227Z" fill="#e3f4c1" stroke="#e3f4c1" stroke-width="1.51"/><path d="M118,-232L536,-227L872,-262Z" fill="#d1ecc4" stroke="#d1ecc4" stroke-width="1.51"/><path d="M21,-234L118,-232L872,-262Z" fill="#e3f4c2" stroke="#e3f4c2" stroke-width="1.51"/><path d="M930,1321L125,1340L1071,1338Z" fill="#4b6f8f" stroke="#4b6f8f" stroke-width="1.51"/><path d="M1071,1338L125,1340L1133,1343Z" fill="#446d8f" stroke="#446d8f" stroke-width="1.51"/><path d="M872,-262L1023,-233L1429,-256Z" fill="#a7d0cb" stroke="#a7d0cb" stroke-width="1.51"/><path d="M872,-262L1429,-256L1883,-266Z" fill="#a1b9c6" stroke="#a1b9c6" stroke-width="1.51"/><path d="M1765,1263L1453,1340L1902,1278Z" fill="#1c3785" stroke="#1c3785" stroke-width="1.51"/><path d="M1902,1278L1453,1340L2111,1330Z" fill="#1b2d7e" stroke="#1b2d7e" stroke-width="1.51"/><path d="M1954,1144L1902,1278L2111,1330Z" fill="#192a79" stroke="#192a79" stroke-width="1.51"/><path d="M2074,509L1987,529L2115,711Z" fill="#306797" stroke="#306797" stroke-width="1.51"/><path d="M1987,529L1975,713L2115,711Z" fill="#2c629a" stroke="#2c629a" stroke-width="1.51"/><path d="M1975,713L2091,850L2115,711Z" fill="#205794" stroke="#205794" stroke-width="1.51"/><path d="M2079,-252L1977,-57L2116,-76Z" fill="#8b8795" stroke="#8b8795" stroke-width="1.51"/><path d="M1985,82L2046,247L2121,33Z" fill="#788092" stroke="#788092" stroke-width="1.51"/><path d="M2116,-76L1977,-57L2121,33Z" fill="#858590" stroke="#858590" stroke-width="1.51"/><path d="M2086,959L1970,1005L2129,1145Z" fill="#1c3885" stroke="#1c3885" stroke-width="1.51"/><path d="M1970,1005L1954,1144L2129,1145Z" fill="#1e3487" stroke="#1e3487" stroke-width="1.51"/><path d="M1954,1144L2111,1330L2129,1145Z" fill="#182978" stroke="#182978" stroke-width="1.51"/><path d="M2115,711L2091,850L2129,1145Z" fill="#1a4487" stroke="#1a4487" stroke-width="1.51"/><path d="M2091,850L2086,959L2129,1145Z" fill="#1a3c83" stroke="#1a3c83" stroke-width="1.51"/><path d="M1976,384L2074,509L2134,341Z" fill="#487095" stroke="#487095" stroke-width="1.51"/><path d="M2046,247L1976,384L2134,341Z" fill="#547594" stroke="#547594" stroke-width="1.51"/><path d="M2121,33L2046,247L2134,341Z" fill="#67798e" stroke="#67798e" stroke-width="1.51"/><path d="M2074,509L2115,711L2134,341Z" fill="#346992" stroke="#346992" stroke-width="1.51"/><path d="M2115,711L2129,1145L2134,341Z" fill="#1e578e" stroke="#1e578e" stroke-width="1.51"/><path d="M1985,82L1959,208L2046,247Z" fill="#728099" stroke="#728099" stroke-width="1.51"/><path d="M1977,-57L1985,82L2121,33Z" fill="#838594" stroke="#838594" stroke-width="1.51"/><path d="M1429,-256L1683,-203L1883,-266Z" fill="#9da1bb" stroke="#9da1bb" stroke-width="1.51"/><path d="M1976,384L1987,529L2074,509Z" fill="#416f9b" stroke="#416f9b" stroke-width="1.51"/><path d="M1883,-266L1977,-57L2079,-252Z" fill="#928ca3" stroke="#928ca3" stroke-width="1.51"/><path d="M1975,713L1901,824L2091,850Z" fill="#24579a" stroke="#24579a" stroke-width="1.51"/><path d="M1970,1005L2086,959L2091,850Z" fill="#1d438b" stroke="#1d438b" stroke-width="1.51"/><path d="M1901,824L1970,1005L2091,850Z" fill="#214b94" stroke="#214b94" stroke-width="1.51"/><path d="M1959,208L1976,384L2046,247Z" fill="#607a9a" stroke="#607a9a" stroke-width="1.51"/><path d="M1901,824L1773,988L1970,1005Z" fill="#254a9d" stroke="#254a9d" stroke-width="1.51"/><path d="M1773,544L1734,714L1975,713Z" fill="#346cac" stroke="#346cac" stroke-width="1.51"/><path d="M1959,208L1840,346L1976,384Z" fill="#5e7ca2" stroke="#5e7ca2" stroke-width="1.51"/><path d="M1883,-266L1753,-185L1977,-57Z" fill="#9991ad" stroke="#9991ad" stroke-width="1.51"/><path d="M1753,-185L1835,-6L1977,-57Z" fill="#9790a7" stroke="#9790a7" stroke-width="1.51"/><path d="M1764,134L1959,208L1985,82Z" fill="#7e87a2" stroke="#7e87a2" stroke-width="1.51"/><path d="M1977,-57L1835,-6L1985,82Z" fill="#8a8a9e" stroke="#8a8a9e" stroke-width="1.51"/><path d="M1773,544L1975,713L1987,529Z" fill="#376da6" stroke="#376da6" stroke-width="1.51"/><path d="M1976,384L1840,346L1987,529Z" fill="#4e76a3" stroke="#4e76a3" stroke-width="1.51"/><path d="M1840,346L1773,544L1987,529Z" fill="#4a76ab" stroke="#4a76ab" stroke-width="1.51"/><path d="M1773,988L1954,1144L1970,1005Z" fill="#243e95" stroke="#243e95" stroke-width="1.51"/><path d="M1835,-6L1764,134L1985,82Z" fill="#898ba6" stroke="#898ba6" stroke-width="1.51"/><path d="M1790,812L1901,824L1975,713Z" fill="#295da5" stroke="#295da5" stroke-width="1.51"/><path d="M1734,714L1790,812L1975,713Z" fill="#2b64ab" stroke="#2b64ab" stroke-width="1.51"/><path d="M1773,988L1794,1191L1954,1144Z" fill="#263b97" stroke="#263b97" stroke-width="1.51"/><path d="M1794,1191L1902,1278L1954,1144Z" fill="#21308a" stroke="#21308a" stroke-width="1.51"/><path d="M1737,278L1840,346L1959,208Z" fill="#6982a9" stroke="#6982a9" stroke-width="1.51"/><path d="M1764,134L1737,278L1959,208Z" fill="#7688a9" stroke="#7688a9" stroke-width="1.51"/><path d="M1632,1248L1453,1340L1765,1263Z" fill="#1d3e89" stroke="#1d3e89" stroke-width="1.51"/><path d="M1790,812L1773,988L1901,824Z" fill="#2856a4" stroke="#2856a4" stroke-width="1.51"/><path d="M1794,1191L1765,1263L1902,1278Z" fill="#203289" stroke="#203289" stroke-width="1.51"/><path d="M1683,-203L1753,-185L1883,-266Z" fill="#9c99b5" stroke="#9c99b5" stroke-width="1.51"/><path d="M1644,374L1655,518L1773,544Z" fill="#4783b1" stroke="#4783b1" stroke-width="1.51"/><path d="M1773,988L1648,1169L1794,1191Z" fill="#26419a" stroke="#26419a" stroke-width="1.51"/><path d="M1753,-185L1625,-60L1835,-6Z" fill="#9899aa" stroke="#9899aa" stroke-width="1.51"/><path d="M1644,374L1773,544L1840,346Z" fill="#5181ae" stroke="#5181ae" stroke-width="1.51"/><path d="M1737,278L1644,374L1840,346Z" fill="#5d86ad" stroke="#5d86ad" stroke-width="1.51"/><path d="M1625,-60L1595,40L1764,134Z" fill="#8d9cad" stroke="#8d9cad" stroke-width="1.51"/><path d="M1625,-60L1764,134L1835,-6Z" fill="#8e96aa" stroke="#8e96aa" stroke-width="1.51"/><path d="M1656,184L1737,278L1764,134Z" fill="#7790ac" stroke="#7790ac" stroke-width="1.51"/><path d="M1655,518L1734,714L1773,544Z" fill="#3879b0" stroke="#3879b0" stroke-width="1.51"/><path d="M1625,940L1773,988L1790,812Z" fill="#2657a5" stroke="#2657a5" stroke-width="1.51"/><path d="M1608,817L1625,940L1790,812Z" fill="#2662aa" stroke="#2662aa" stroke-width="1.51"/><path d="M1648,1169L1765,1263L1794,1191Z" fill="#223a90" stroke="#223a90" stroke-width="1.51"/><path d="M1625,940L1648,1169L1773,988Z" fill="#264ea0" stroke="#264ea0" stroke-width="1.51"/><path d="M1734,714L1608,817L1790,812Z" fill="#2868ad" stroke="#2868ad" stroke-width="1.51"/><path d="M256,1299L125,1340L930,1321Z" fill="#6c7b8f" stroke="#6c7b8f" stroke-width="1.51"/><path d="M1655,518L1620,720L1734,714Z" fill="#3178b2" stroke="#3178b2" stroke-width="1.51"/><path d="M1683,-203L1625,-60L1753,-185Z" fill="#9a9eb2" stroke="#9a9eb2" stroke-width="1.51"/><path d="M1595,40L1656,184L1764,134Z" fill="#8598ad" stroke="#8598ad" stroke-width="1.51"/><path d="M1648,1169L1632,1248L1765,1263Z" fill="#223c90" stroke="#223c90" stroke-width="1.51"/><path d="M1620,720L1608,817L1734,714Z" fill="#2770b1" stroke="#2770b1" stroke-width="1.51"/><path d="M1625,940L1530,997L1648,1169Z" fill="#2553a3" stroke="#2553a3" stroke-width="1.51"/><path d="M1540,586L1620,720L1655,518Z" fill="#3380b4" stroke="#3380b4" stroke-width="1.51"/><path d="M1656,184L1644,374L1737,278Z" fill="#688eae" stroke="#688eae" stroke-width="1.51"/><path d="M633,1261L256,1299L930,1321Z" fill="#597694" stroke="#597694" stroke-width="1.51"/><path d="M1530,997L1507,1144L1648,1169Z" fill="#254fa1" stroke="#254fa1" stroke-width="1.51"/><path d="M1515,225L1644,374L1656,184Z" fill="#6b95b0" stroke="#6b95b0" stroke-width="1.51"/><path d="M1524,-53L1625,-60L1683,-203Z" fill="#99a3b0" stroke="#99a3b0" stroke-width="1.51"/><path d="M1429,-256L1524,-53L1683,-203Z" fill="#9ba9b8" stroke="#9ba9b8" stroke-width="1.51"/><path d="M1644,374L1457,382L1655,518Z" fill="#4e8db3" stroke="#4e8db3" stroke-width="1.51"/><path d="M1457,382L1540,586L1655,518Z" fill="#418cb6" stroke="#418cb6" stroke-width="1.51"/><path d="M1595,40L1515,225L1656,184Z" fill="#809daf" stroke="#809daf" stroke-width="1.51"/><path d="M1515,225L1457,382L1644,374Z" fill="#5d96b3" stroke="#5d96b3" stroke-width="1.51"/><path d="M1507,1144L1632,1248L1648,1169Z" fill="#244598" stroke="#244598" stroke-width="1.51"/><path d="M1433,128L1515,225L1595,40Z" fill="#84a5b2" stroke="#84a5b2" stroke-width="1.51"/><path d="M1524,-53L1595,40L1625,-60Z" fill="#93a3af" stroke="#93a3af" stroke-width="1.51"/><path d="M1608,817L1458,831L1625,940Z" fill="#2368ad" stroke="#2368ad" stroke-width="1.51"/><path d="M1458,831L1530,997L1625,940Z" fill="#2363ab" stroke="#2363ab" stroke-width="1.51"/><path d="M1507,1144L1453,1340L1632,1248Z" fill="#204692" stroke="#204692" stroke-width="1.51"/><path d="M1540,586L1453,686L1620,720Z" fill="#2c81b6" stroke="#2c81b6" stroke-width="1.51"/><path d="M1458,831L1608,817L1620,720Z" fill="#2372b2" stroke="#2372b2" stroke-width="1.51"/><path d="M1453,686L1458,831L1620,720Z" fill="#237bb6" stroke="#237bb6" stroke-width="1.51"/><path d="M1524,-53L1433,128L1595,40Z" fill="#8da7b1" stroke="#8da7b1" stroke-width="1.51"/><path d="M1023,-233L1356,-216L1429,-256Z" fill="#a2c4c8" stroke="#a2c4c8" stroke-width="1.51"/><path d="M1366,1243L1453,1340L1507,1144Z" fill="#224d96" stroke="#224d96" stroke-width="1.51"/><path d="M1429,-256L1356,-216L1524,-53Z" fill="#9eb4bd" stroke="#9eb4bd" stroke-width="1.51"/><path d="M1356,-216L1336,-64L1524,-53Z" fill="#9cb6b8" stroke="#9cb6b8" stroke-width="1.51"/><path d="M1336,-64L1433,128L1524,-53Z" fill="#92b0b4" stroke="#92b0b4" stroke-width="1.51"/><path d="M1344,1027L1507,1144L1530,997Z" fill="#265ca7" stroke="#265ca7" stroke-width="1.51"/><path d="M1458,831L1344,1027L1530,997Z" fill="#2367ad" stroke="#2367ad" stroke-width="1.51"/><path d="M1457,382L1347,515L1540,586Z" fill="#4095ba" stroke="#4095ba" stroke-width="1.51"/><path d="M1347,515L1453,686L1540,586Z" fill="#328eba" stroke="#328eba" stroke-width="1.51"/><path d="M1369,1170L1366,1243L1507,1144Z" fill="#2754a0" stroke="#2754a0" stroke-width="1.51"/><path d="M1351,228L1457,382L1515,225Z" fill="#67a1b6" stroke="#67a1b6" stroke-width="1.51"/><path d="M1344,1027L1369,1170L1507,1144Z" fill="#295aa6" stroke="#295aa6" stroke-width="1.51"/><path d="M1433,128L1351,228L1515,225Z" fill="#79a7b5" stroke="#79a7b5" stroke-width="1.51"/><path d="M1023,-233L1235,-173L1356,-216Z" fill="#a2c9c7" stroke="#a2c9c7" stroke-width="1.51"/><path d="M1336,-64L1302,85L1433,128Z" fill="#8eb5b7" stroke="#8eb5b7" stroke-width="1.51"/><path d="M1366,1243L1133,1343L1453,1340Z" fill="#1f5391" stroke="#1f5391" stroke-width="1.51"/><path d="M1347,515L1351,728L1453,686Z" fill="#2d8fbc" stroke="#2d8fbc" stroke-width="1.51"/><path d="M1351,228L1329,384L1457,382Z" fill="#5ca4ba" stroke="#5ca4ba" stroke-width="1.51"/><path d="M1329,384L1347,515L1457,382Z" fill="#4c9fbb" stroke="#4c9fbb" stroke-width="1.51"/><path d="M1453,686L1351,728L1458,831Z" fill="#2182ba" stroke="#2182ba" stroke-width="1.51"/><path d="M1351,728L1322,813L1458,831Z" fill="#2281b9" stroke="#2281b9" stroke-width="1.51"/><path d="M1322,813L1344,1027L1458,831Z" fill="#2375b3" stroke="#2375b3" stroke-width="1.51"/><path d="M1302,85L1351,228L1433,128Z" fill="#82b1b8" stroke="#82b1b8" stroke-width="1.51"/><path d="M1230,806L1209,1032L1322,813Z" fill="#2280b8" stroke="#2280b8" stroke-width="1.51"/><path d="M1229,62L1302,85L1336,-64Z" fill="#92bcba" stroke="#92bcba" stroke-width="1.51"/><path d="M1322,813L1209,1032L1344,1027Z" fill="#2374b3" stroke="#2374b3" stroke-width="1.51"/><path d="M1347,515L1169,538L1351,728Z" fill="#2f9cc1" stroke="#2f9cc1" stroke-width="1.51"/><path d="M1169,538L1194,744L1351,728Z" fill="#2899c1" stroke="#2899c1" stroke-width="1.51"/><path d="M1235,-173L1336,-64L1356,-216Z" fill="#9ec0bf" stroke="#9ec0bf" stroke-width="1.51"/><path d="M1143,1193L1133,1343L1366,1243Z" fill="#275e9b" stroke="#275e9b" stroke-width="1.51"/><path d="M1344,1027L1209,1032L1369,1170Z" fill="#2967ac" stroke="#2967ac" stroke-width="1.51"/><path d="M1143,1193L1366,1243L1369,1170Z" fill="#285ca2" stroke="#285ca2" stroke-width="1.51"/><path d="M1209,1032L1143,1193L1369,1170Z" fill="#2d66ac" stroke="#2d66ac" stroke-width="1.51"/><path d="M1158,193L1329,384L1351,228Z" fill="#6ab1bc" stroke="#6ab1bc" stroke-width="1.51"/><path d="M1158,193L1133,383L1329,384Z" fill="#5fb2be" stroke="#5fb2be" stroke-width="1.51"/><path d="M1329,384L1169,538L1347,515Z" fill="#42a5c0" stroke="#42a5c0" stroke-width="1.51"/><path d="M1302,85L1158,193L1351,228Z" fill="#7fb8bc" stroke="#7fb8bc" stroke-width="1.51"/><path d="M1230,806L1322,813L1351,728Z" fill="#2089bd" stroke="#2089bd" stroke-width="1.51"/><path d="M1194,744L1230,806L1351,728Z" fill="#1e8fbf" stroke="#1e8fbf" stroke-width="1.51"/><path d="M1133,383L1169,538L1329,384Z" fill="#4cacc1" stroke="#4cacc1" stroke-width="1.51"/><path d="M1235,-173L1143,-75L1336,-64Z" fill="#9ec5bd" stroke="#9ec5bd" stroke-width="1.51"/><path d="M1143,-75L1229,62L1336,-64Z" fill="#98c3bb" stroke="#98c3bb" stroke-width="1.51"/><path d="M1229,62L1158,193L1302,85Z" fill="#89bebb" stroke="#89bebb" stroke-width="1.51"/><path d="M1054,275L1133,383L1158,193Z" fill="#6bbbbe" stroke="#6bbbbe" stroke-width="1.51"/><path d="M1053,583L1048,682L1169,538Z" fill="#37a8c3" stroke="#37a8c3" stroke-width="1.51"/><path d="M1169,538L1048,682L1194,744Z" fill="#31a0c2" stroke="#31a0c2" stroke-width="1.51"/><path d="M999,863L1050,1039L1209,1032Z" fill="#317fb4" stroke="#317fb4" stroke-width="1.51"/><path d="M1074,1101L1143,1193L1209,1032Z" fill="#336eae" stroke="#336eae" stroke-width="1.51"/><path d="M1088,36L1158,193L1229,62Z" fill="#8dc3bc" stroke="#8dc3bc" stroke-width="1.51"/><path d="M1143,-75L1088,36L1229,62Z" fill="#97c7bb" stroke="#97c7bb" stroke-width="1.51"/><path d="M999,863L1209,1032L1230,806Z" fill="#2b85b8" stroke="#2b85b8" stroke-width="1.51"/><path d="M1023,-233L1143,-75L1235,-173Z" fill="#a3ccc3" stroke="#a3ccc3" stroke-width="1.51"/><path d="M1194,744L999,863L1230,806Z" fill="#2990be" stroke="#2990be" stroke-width="1.51"/><path d="M1050,1039L1074,1101L1209,1032Z" fill="#3375b0" stroke="#3375b0" stroke-width="1.51"/><path d="M1133,383L1025,430L1169,538Z" fill="#4db1c1" stroke="#4db1c1" stroke-width="1.51"/><path d="M1048,682L999,863L1194,744Z" fill="#2c9ac1" stroke="#2c9ac1" stroke-width="1.51"/><path d="M1071,1338L1133,1343L1143,1193Z" fill="#2b6297" stroke="#2b6297" stroke-width="1.51"/><path d="M1023,-233L1006,-82L1143,-75Z" fill="#a5d1c0" stroke="#a5d1c0" stroke-width="1.51"/><path d="M1025,430L1053,583L1169,538Z" fill="#41b0c3" stroke="#41b0c3" stroke-width="1.51"/><path d="M1088,36L1054,275L1158,193Z" fill="#84c3bd" stroke="#84c3bd" stroke-width="1.51"/><path d="M930,1321L1071,1338L1143,1193Z" fill="#306699" stroke="#306699" stroke-width="1.51"/><path d="M1074,1101L920,1125L1143,1193Z" fill="#3970ad" stroke="#3970ad" stroke-width="1.51"/><path d="M920,1125L930,1321L1143,1193Z" fill="#386ea4" stroke="#386ea4" stroke-width="1.51"/><path d="M1006,-82L1088,36L1143,-75Z" fill="#9ecdbc" stroke="#9ecdbc" stroke-width="1.51"/><path d="M898,59L1054,275L1088,36Z" fill="#8eccbc" stroke="#8eccbc" stroke-width="1.51"/><path d="M1054,275L1025,430L1133,383Z" fill="#5db9c0" stroke="#5db9c0" stroke-width="1.51"/><path d="M536,-227L722,-212L872,-262Z" fill="#bde3c6" stroke="#bde3c6" stroke-width="1.51"/><path d="M898,59L833,197L1054,275Z" fill="#89cdbd" stroke="#89cdbd" stroke-width="1.51"/><path d="M923,351L1025,430L1054,275Z" fill="#61bec0" stroke="#61bec0" stroke-width="1.51"/><path d="M1006,-82L898,59L1088,36Z" fill="#9cd1bc" stroke="#9cd1bc" stroke-width="1.51"/><path d="M918,653L999,863L1048,682Z" fill="#32a2c2" stroke="#32a2c2" stroke-width="1.51"/><path d="M999,863L893,937L1050,1039Z" fill="#3688b7" stroke="#3688b7" stroke-width="1.51"/><path d="M1050,1039L920,1125L1074,1101Z" fill="#3a78af" stroke="#3a78af" stroke-width="1.51"/><path d="M918,653L843,787L999,863Z" fill="#3aa2c1" stroke="#3aa2c1" stroke-width="1.51"/><path d="M879,-21L898,59L1006,-82Z" fill="#a1d5bb" stroke="#a1d5bb" stroke-width="1.51"/><path d="M1025,430L833,506L1053,583Z" fill="#47b7c4" stroke="#47b7c4" stroke-width="1.51"/><path d="M833,506L918,653L1053,583Z" fill="#42b3c3" stroke="#42b3c3" stroke-width="1.51"/><path d="M918,653L1048,682L1053,583Z" fill="#38aac3" stroke="#38aac3" stroke-width="1.51"/><path d="M833,197L923,351L1054,275Z" fill="#74c6be" stroke="#74c6be" stroke-width="1.51"/><path d="M893,937L920,1125L1050,1039Z" fill="#3c81b2" stroke="#3c81b2" stroke-width="1.51"/><path d="M872,-262L1006,-82L1023,-233Z" fill="#a9d8c6" stroke="#a9d8c6" stroke-width="1.51"/><path d="M923,351L833,506L1025,430Z" fill="#5abdc1" stroke="#5abdc1" stroke-width="1.51"/><path d="M872,-262L879,-21L1006,-82Z" fill="#aad9bf" stroke="#aad9bf" stroke-width="1.51"/><path d="M782,1242L633,1261L930,1321Z" fill="#497299" stroke="#497299" stroke-width="1.51"/><path d="M843,787L893,937L999,863Z" fill="#3d96bb" stroke="#3d96bb" stroke-width="1.51"/><path d="M872,-262L722,-212L879,-21Z" fill="#b2ddc2" stroke="#b2ddc2" stroke-width="1.51"/><path d="M722,-212L711,-66L879,-21Z" fill="#b3deba" stroke="#b3deba" stroke-width="1.51"/><path d="M784,716L843,787L918,653Z" fill="#46aac1" stroke="#46aac1" stroke-width="1.51"/><path d="M893,937L764,998L920,1125Z" fill="#4785b2" stroke="#4785b2" stroke-width="1.51"/><path d="M774,433L833,506L923,351Z" fill="#62c0c0" stroke="#62c0c0" stroke-width="1.51"/><path d="M920,1125L782,1242L930,1321Z" fill="#4271a1" stroke="#4271a1" stroke-width="1.51"/><path d="M833,506L784,716L918,653Z" fill="#4bb3c2" stroke="#4bb3c2" stroke-width="1.51"/><path d="M833,197L774,433L923,351Z" fill="#71c6be" stroke="#71c6be" stroke-width="1.51"/><path d="M682,1131L782,1242L920,1125Z" fill="#5079a9" stroke="#5079a9" stroke-width="1.51"/><path d="M764,998L682,1131L920,1125Z" fill="#5181ae" stroke="#5181ae" stroke-width="1.51"/><path d="M713,805L764,998L843,787Z" fill="#4f9bb9" stroke="#4f9bb9" stroke-width="1.51"/><path d="M843,787L764,998L893,937Z" fill="#4893b7" stroke="#4893b7" stroke-width="1.51"/><path d="M879,-21L700,138L898,59Z" fill="#a1d7ba" stroke="#a1d7ba" stroke-width="1.51"/><path d="M700,138L833,197L898,59Z" fill="#9ad4ba" stroke="#9ad4ba" stroke-width="1.51"/><path d="M690,555L784,716L833,506Z" fill="#56b8c1" stroke="#56b8c1" stroke-width="1.51"/><path d="M717,189L774,433L833,197Z" fill="#82ccbc" stroke="#82ccbc" stroke-width="1.51"/><path d="M711,-66L700,138L879,-21Z" fill="#a9dbb8" stroke="#a9dbb8" stroke-width="1.51"/><path d="M433,1234L256,1299L633,1261Z" fill="#707f97" stroke="#707f97" stroke-width="1.51"/><path d="M700,138L717,189L833,197Z" fill="#97d4ba" stroke="#97d4ba" stroke-width="1.51"/><path d="M784,716L713,805L843,787Z" fill="#4da7be" stroke="#4da7be" stroke-width="1.51"/><path d="M774,433L690,555L833,506Z" fill="#60c0c0" stroke="#60c0c0" stroke-width="1.51"/><path d="M614,105L700,138L711,-66Z" fill="#abddb7" stroke="#abddb7" stroke-width="1.51"/><path d="M571,846L628,1031L713,805Z" fill="#5e9cb6" stroke="#5e9cb6" stroke-width="1.51"/><path d="M713,805L628,1031L764,998Z" fill="#5793b3" stroke="#5793b3" stroke-width="1.51"/><path d="M628,1031L682,1131L764,998Z" fill="#5a88ae" stroke="#5a88ae" stroke-width="1.51"/><path d="M717,189L603,214L774,433Z" fill="#87cfbb" stroke="#87cfbb" stroke-width="1.51"/><path d="M603,214L530,367L774,433Z" fill="#82cebb" stroke="#82cebb" stroke-width="1.51"/><path d="M682,1131L633,1261L782,1242Z" fill="#5679a1" stroke="#5679a1" stroke-width="1.51"/><path d="M550,639L713,805L784,716Z" fill="#59b0bf" stroke="#59b0bf" stroke-width="1.51"/><path d="M690,555L550,639L784,716Z" fill="#5fb8bf" stroke="#5fb8bf" stroke-width="1.51"/><path d="M530,367L690,555L774,433Z" fill="#70c6be" stroke="#70c6be" stroke-width="1.51"/><path d="M530,367L564,541L690,555Z" fill="#75c7be" stroke="#75c7be" stroke-width="1.51"/><path d="M570,-105L614,105L711,-66Z" fill="#b8e2b6" stroke="#b8e2b6" stroke-width="1.51"/><path d="M550,639L571,846L713,805Z" fill="#63afbd" stroke="#63afbd" stroke-width="1.51"/><path d="M570,-105L711,-66L722,-212Z" fill="#bbe3bb" stroke="#bbe3bb" stroke-width="1.51"/><path d="M536,-227L570,-105L722,-212Z" fill="#c4e7c0" stroke="#c4e7c0" stroke-width="1.51"/><path d="M700,138L603,214L717,189Z" fill="#9bd7b9" stroke="#9bd7b9" stroke-width="1.51"/><path d="M558,1167L633,1261L682,1131Z" fill="#607da4" stroke="#607da4" stroke-width="1.51"/><path d="M564,541L550,639L690,555Z" fill="#6cc0bf" stroke="#6cc0bf" stroke-width="1.51"/><path d="M614,105L603,214L700,138Z" fill="#a3dab8" stroke="#a3dab8" stroke-width="1.51"/><path d="M628,1031L558,1167L682,1131Z" fill="#6284ab" stroke="#6284ab" stroke-width="1.51"/><path d="M550,639L439,790L571,846Z" fill="#71b3bc" stroke="#71b3bc" stroke-width="1.51"/><path d="M570,-105L410,52L614,105Z" fill="#bfe5b5" stroke="#bfe5b5" stroke-width="1.51"/><path d="M571,846L481,963L628,1031Z" fill="#6a98b2" stroke="#6a98b2" stroke-width="1.51"/><path d="M558,1167L433,1234L633,1261Z" fill="#687e9e" stroke="#687e9e" stroke-width="1.51"/><path d="M481,963L558,1167L628,1031Z" fill="#6b8dad" stroke="#6b8dad" stroke-width="1.51"/><path d="M472,651L439,790L550,639Z" fill="#78bbbd" stroke="#78bbbd" stroke-width="1.51"/><path d="M427,201L530,367L603,214Z" fill="#9fd8b9" stroke="#9fd8b9" stroke-width="1.51"/><path d="M427,201L603,214L614,105Z" fill="#aaddb8" stroke="#aaddb8" stroke-width="1.51"/><path d="M410,52L427,201L614,105Z" fill="#bae3b6" stroke="#bae3b6" stroke-width="1.51"/><path d="M481,963L405,1136L558,1167Z" fill="#758cab" stroke="#758cab" stroke-width="1.51"/><path d="M530,367L380,430L564,541Z" fill="#89cebc" stroke="#89cebc" stroke-width="1.51"/><path d="M380,430L437,580L564,541Z" fill="#85ccbd" stroke="#85ccbd" stroke-width="1.51"/><path d="M437,580L550,639L564,541Z" fill="#78c3be" stroke="#78c3be" stroke-width="1.51"/><path d="M470,-183L379,-5L570,-105Z" fill="#cfebb6" stroke="#cfebb6" stroke-width="1.51"/><path d="M379,-5L410,52L570,-105Z" fill="#caeab4" stroke="#caeab4" stroke-width="1.51"/><path d="M536,-227L470,-183L570,-105Z" fill="#ccebbe" stroke="#ccebbe" stroke-width="1.51"/><path d="M439,790L481,963L571,846Z" fill="#73a6b6" stroke="#73a6b6" stroke-width="1.51"/><path d="M332,-222L470,-183L536,-227Z" fill="#d7efc0" stroke="#d7efc0" stroke-width="1.51"/><path d="M437,580L472,651L550,639Z" fill="#7bc2bd" stroke="#7bc2bd" stroke-width="1.51"/><path d="M405,1136L433,1234L558,1167Z" fill="#7584a5" stroke="#7584a5" stroke-width="1.51"/><path d="M427,201L380,430L530,367Z" fill="#9bd7b9" stroke="#9bd7b9" stroke-width="1.51"/><path d="M270,286L380,430L427,201Z" fill="#aaddb7" stroke="#aaddb7" stroke-width="1.51"/><path d="M380,430L336,493L437,580Z" fill="#91d0bc" stroke="#91d0bc" stroke-width="1.51"/><path d="M262,799L308,1020L439,790Z" fill="#87abb5" stroke="#87abb5" stroke-width="1.51"/><path d="M313,-69L379,-5L470,-183Z" fill="#d8efb4" stroke="#d8efb4" stroke-width="1.51"/><path d="M266,686L439,790L472,651Z" fill="#84bebc" stroke="#84bebc" stroke-width="1.51"/><path d="M439,790L308,1020L481,963Z" fill="#7ea2b2" stroke="#7ea2b2" stroke-width="1.51"/><path d="M308,1020L405,1136L481,963Z" fill="#8095ad" stroke="#8095ad" stroke-width="1.51"/><path d="M332,-222L313,-69L470,-183Z" fill="#dcf2ba" stroke="#dcf2ba" stroke-width="1.51"/><path d="M437,580L266,686L472,651Z" fill="#87c4bc" stroke="#87c4bc" stroke-width="1.51"/><path d="M410,52L310,54L427,201Z" fill="#c7e9b5" stroke="#c7e9b5" stroke-width="1.51"/><path d="M266,686L262,799L439,790Z" fill="#8abbbb" stroke="#8abbbb" stroke-width="1.51"/><path d="M336,493L266,686L437,580Z" fill="#8fcbbc" stroke="#8fcbbc" stroke-width="1.51"/><path d="M405,1136L259,1130L433,1234Z" fill="#8289a6" stroke="#8289a6" stroke-width="1.51"/><path d="M259,1130L256,1299L433,1234Z" fill="#80869d" stroke="#80869d" stroke-width="1.51"/><path d="M310,54L270,286L427,201Z" fill="#c0e6b5" stroke="#c0e6b5" stroke-width="1.51"/><path d="M270,286L298,436L380,430Z" fill="#a3d9b9" stroke="#a3d9b9" stroke-width="1.51"/><path d="M308,1020L259,1130L405,1136Z" fill="#8691aa" stroke="#8691aa" stroke-width="1.51"/><path d="M379,-5L310,54L410,52Z" fill="#d0ecb4" stroke="#d0ecb4" stroke-width="1.51"/><path d="M298,436L336,493L380,430Z" fill="#9bd5ba" stroke="#9bd5ba" stroke-width="1.51"/><path d="M313,-69L310,54L379,-5Z" fill="#d5eeb3" stroke="#d5eeb3" stroke-width="1.51"/><path d="M262,799L98,1035L308,1020Z" fill="#8da3b0" stroke="#8da3b0" stroke-width="1.51"/><path d="M106,202L270,286L310,54Z" fill="#c7e9b5" stroke="#c7e9b5" stroke-width="1.51"/><path d="M148,37L106,202L310,54Z" fill="#d5eeb3" stroke="#d5eeb3" stroke-width="1.51"/><path d="M166,-98L313,-69L332,-222Z" fill="#e3f4b7" stroke="#e3f4b7" stroke-width="1.51"/><path d="M298,436L189,495L336,493Z" fill="#9dd5bb" stroke="#9dd5bb" stroke-width="1.51"/><path d="M189,495L266,686L336,493Z" fill="#96d0bc" stroke="#96d0bc" stroke-width="1.51"/><path d="M148,37L310,54L313,-69Z" fill="#d9f0b3" stroke="#d9f0b3" stroke-width="1.51"/><path d="M118,-232L166,-98L332,-222Z" fill="#e9f7bc" stroke="#e9f7bc" stroke-width="1.51"/><path d="M185,1144L256,1299L259,1130Z" fill="#898aa1" stroke="#898aa1" stroke-width="1.51"/><path d="M270,286L116,352L298,436Z" fill="#acddb8" stroke="#acddb8" stroke-width="1.51"/><path d="M166,-98L148,37L313,-69Z" fill="#e1f3b3" stroke="#e1f3b3" stroke-width="1.51"/><path d="M82,793L98,1035L262,799Z" fill="#94b0b4" stroke="#94b0b4" stroke-width="1.51"/><path d="M98,1035L185,1144L259,1130Z" fill="#9094a9" stroke="#9094a9" stroke-width="1.51"/><path d="M98,1035L259,1130L308,1020Z" fill="#8d97ab" stroke="#8d97ab" stroke-width="1.51"/><path d="M179,732L262,799L266,686Z" fill="#90bfbb" stroke="#90bfbb" stroke-width="1.51"/><path d="M116,352L189,495L298,436Z" fill="#a7d9b9" stroke="#a7d9b9" stroke-width="1.51"/><path d="M31,660L179,732L189,495Z" fill="#9dccbb" stroke="#9dccbb" stroke-width="1.51"/><path d="M185,1144L125,1340L256,1299Z" fill="#858697" stroke="#858697" stroke-width="1.51"/><path d="M189,495L179,732L266,686Z" fill="#97c9bc" stroke="#97c9bc" stroke-width="1.51"/><path d="M106,202L116,352L270,286Z" fill="#bce3b6" stroke="#bce3b6" stroke-width="1.51"/><path d="M179,732L82,793L262,799Z" fill="#94bcb9" stroke="#94bcb9" stroke-width="1.51"/><path d="M82,793L-26,864L98,1035Z" fill="#9aaeb3" stroke="#9aaeb3" stroke-width="1.51"/><path d="M-26,864L-4,1003L98,1035Z" fill="#99a6b1" stroke="#99a6b1" stroke-width="1.51"/><path d="M18,93L106,202L148,37Z" fill="#daf0b3" stroke="#daf0b3" stroke-width="1.51"/><path d="M14,1135L125,1340L185,1144Z" fill="#8f8c9f" stroke="#8f8c9f" stroke-width="1.51"/><path d="M116,352L-15,560L189,495Z" fill="#aadaba" stroke="#aadaba" stroke-width="1.51"/><path d="M-15,560L31,660L189,495Z" fill="#a4d3bb" stroke="#a4d3bb" stroke-width="1.51"/><path d="M98,1035L14,1135L185,1144Z" fill="#9595a8" stroke="#9595a8" stroke-width="1.51"/><path d="M-9,-9L148,37L166,-98Z" fill="#e6f5b2" stroke="#e6f5b2" stroke-width="1.51"/><path d="M31,660L82,793L179,732Z" fill="#9bc3ba" stroke="#9bc3ba" stroke-width="1.51"/><path d="M-60,390L-15,560L116,352Z" fill="#b1ddbc" stroke="#b1ddbc" stroke-width="1.51"/><path d="M106,202L12,257L116,352Z" fill="#c3e6b5" stroke="#c3e6b5" stroke-width="1.51"/><path d="M14,1135L-62,1245L125,1340Z" fill="#908b9c" stroke="#908b9c" stroke-width="1.51"/><path d="M118,-232L21,-234L166,-98Z" fill="#f0f9bb" stroke="#f0f9bb" stroke-width="1.51"/><path d="M21,-234L-9,-9L166,-98Z" fill="#eff9b5" stroke="#eff9b5" stroke-width="1.51"/><path d="M-9,-9L18,93L148,37Z" fill="#e2f3b3" stroke="#e2f3b3" stroke-width="1.51"/><path d="M-62,1245L-143,1310L125,1340Z" fill="#8b8796" stroke="#8b8796" stroke-width="1.51"/><path d="M12,257L-60,390L116,352Z" fill="#bbe3b9" stroke="#bbe3b9" stroke-width="1.51"/><path d="M-116,-105L-9,-9L21,-234Z" fill="#f2fabb" stroke="#f2fabb" stroke-width="1.51"/><path d="M18,93L12,257L106,202Z" fill="#d2ecb5" stroke="#d2ecb5" stroke-width="1.51"/><path d="M-4,1003L14,1135L98,1035Z" fill="#989cac" stroke="#989cac" stroke-width="1.51"/><path d="M31,660L-26,864L82,793Z" fill="#9dc0bb" stroke="#9dc0bb" stroke-width="1.51"/><path d="M-114,52L12,257L18,93Z" fill="#dcf1b8" stroke="#dcf1b8" stroke-width="1.51"/><path d="M-147,-221L-116,-105L21,-234Z" fill="#f7fbc5" stroke="#f7fbc5" stroke-width="1.51"/><path d="M-15,560L-136,697L31,660Z" fill="#a4cec1" stroke="#a4cec1" stroke-width="1.51"/><path d="M-136,697L-26,864L31,660Z" fill="#9fc4c1" stroke="#9fc4c1" stroke-width="1.51"/><path d="M-136,697L-132,857L-26,864Z" fill="#9fbdc1" stroke="#9fbdc1" stroke-width="1.51"/><path d="M-115,558L-136,697L-15,560Z" fill="#a6d2c5" stroke="#a6d2c5" stroke-width="1.51"/><path d="M-60,390L-115,558L-15,560Z" fill="#addac2" stroke="#addac2" stroke-width="1.51"/><path d="M-114,52L-211,278L12,257Z" fill="#d4eebe" stroke="#d4eebe" stroke-width="1.51"/><path d="M-4,1003L-216,1037L14,1135Z" fill="#9b9db3" stroke="#9b9db3" stroke-width="1.51"/><path d="M-216,1037L-214,1148L14,1135Z" fill="#9c98b4" stroke="#9c98b4" stroke-width="1.51"/><path d="M-9,-9L-114,52L18,93Z" fill="#e5f5b8" stroke="#e5f5b8" stroke-width="1.51"/><path d="M-26,864L-132,857L-4,1003Z" fill="#9caeb9" stroke="#9caeb9" stroke-width="1.51"/><path d="M-211,278L-60,390L12,257Z" fill="#c2e6c0" stroke="#c2e6c0" stroke-width="1.51"/><path d="M-214,1148L-62,1245L14,1135Z" fill="#9890ad" stroke="#9890ad" stroke-width="1.51"/><path d="M-132,857L-216,1037L-4,1003Z" fill="#9ca7ba" stroke="#9ca7ba" stroke-width="1.51"/><path d="M-116,-105L-114,52L-9,-9Z" fill="#ecf8bb" stroke="#ecf8bb" stroke-width="1.51"/><path d="M-214,1148L-143,1310L-62,1245Z" fill="#948da6" stroke="#948da6" stroke-width="1.51"/><path d="M-211,400L-115,558L-60,390Z" fill="#b3dec5" stroke="#b3dec5" stroke-width="1.51"/><path d="M-211,278L-211,400L-60,390Z" fill="#bde4c5" stroke="#bde4c5" stroke-width="1.51"/><path d="M-147,-221L-211,278L-116,-105Z" fill="#eef8c0" stroke="#eef8c0" stroke-width="1.51"/><path d="M-211,400L-136,697L-115,558Z" fill="#aad8ca" stroke="#aad8ca" stroke-width="1.51"/><path d="M-116,-105L-211,278L-114,52Z" fill="#e6f5c0" stroke="#e6f5c0" stroke-width="1.51"/><path d="M-136,697L-216,1037L-132,857Z" fill="#9fb5c2" stroke="#9fb5c2" stroke-width="1.51"/><path d="M-211,400L-216,1037L-136,697Z" fill="#a4c9ca" stroke="#a4c9ca" stroke-width="1.51"/></svg>