<svg xmlns="http://www.w3.org/2000/svg" width="1920" height="1080"><path d="M529,-259L837,-223L1066,-222Z" fill="#ffbccc" stroke="#ffbccc" stroke-width="1.51"/><path d="M996,1326L870,1335L1365,1321Z" fill="#9f2c85" stroke="#9f2c85" stroke-width="1.51"/><path d="M529,-259L1066,-222L1438,-266Z" fill="#feadc6" stroke="#feadc6" stroke-width="1.51"/><path d="M1438,-266L1743,-242L1908,-262Z" fill="#ce89b4" stroke="#ce89b4" stroke-width="1.51"/><path d="M2036,529L1929,592L2054,720Z" fill="#a82e87" stroke="#a82e87" stroke-width="1.51"/><path d="M2043,-29L2069,126L2073,-216Z" fill="#ac73a2" stroke="#ac73a2" stroke-width="1.51"/><path d="M1836,1270L1664,1287L2090,1316Z" fill="#6a0073" stroke="#6a0073" stroke-width="1.51"/><path d="M1664,1287L1365,1321L2090,1316Z" fill="#760075" stroke="#760075" stroke-width="1.51"/><path d="M1939,1257L1836,1270L2090,1316Z" fill="#640071" stroke="#640071" stroke-width="1.51"/><path d="M2054,1184L1939,1257L2090,1316Z" fill="#620071" stroke="#620071" stroke-width="1.51"/><path d="M2028,201L1927,264L2092,439Z" fill="#ad5894" stroke="#ad5894" stroke-width="1.51"/><path d="M1927,264L1903,431L2092,439Z" fill="#b05092" stroke="#b05092" stroke-width="1.51"/><path d="M2069,126L2028,201L2092,439Z" fill="#aa5c94" stroke="#aa5c94" stroke-width="1.51"/><path d="M2036,529L2054,720L2092,439Z" fill="#a63487" stroke="#a63487" stroke-width="1.51"/><path d="M2073,-216L2069,126L2092,439Z" fill="#aa6898" stroke="#aa6898" stroke-width="1.51"/><path d="M1958,806L1919,1025L2095,991Z" fill="#8b0178" stroke="#8b0178" stroke-width="1.51"/><path d="M1950,1159L2054,1184L2095,991Z" fill="#720075" stroke="#720075" stroke-width="1.51"/><path d="M1919,1025L1950,1159L2095,991Z" fill="#7d0076" stroke="#7d0076" stroke-width="1.51"/><path d="M2054,1184L2090,1316L2095,991Z" fill="#680072" stroke="#680072" stroke-width="1.51"/><path d="M1958,806L2095,991L2106,846Z" fill="#8d097b" stroke="#8d097b" stroke-width="1.51"/><path d="M2054,720L1958,806L2106,846Z" fill="#981581" stroke="#981581" stroke-width="1.51"/><path d="M2092,439L2054,720L2106,846Z" fill="#9e2584" stroke="#9e2584" stroke-width="1.51"/><path d="M2095,991L2090,1316L2106,846Z" fill="#750074" stroke="#750074" stroke-width="1.51"/><path d="M2043,-29L1938,140L2069,126Z" fill="#af6c9c" stroke="#af6c9c" stroke-width="1.51"/><path d="M1908,-262L2043,-29L2073,-216Z" fill="#b17bab" stroke="#b17bab" stroke-width="1.51"/><path d="M1903,431L2036,529L2092,439Z" fill="#ad438c" stroke="#ad438c" stroke-width="1.51"/><path d="M1908,-262L1879,-18L2043,-29Z" fill="#b67aa9" stroke="#b67aa9" stroke-width="1.51"/><path d="M1929,592L1924,730L2054,720Z" fill="#a62686" stroke="#a62686" stroke-width="1.51"/><path d="M1879,-18L1938,140L2043,-29Z" fill="#b571a0" stroke="#b571a0" stroke-width="1.51"/><path d="M1938,140L2028,201L2069,126Z" fill="#af6698" stroke="#af6698" stroke-width="1.51"/><path d="M1950,1159L1939,1257L2054,1184Z" fill="#6c0073" stroke="#6c0073" stroke-width="1.51"/><path d="M1924,730L1958,806L2054,720Z" fill="#a11a84" stroke="#a11a84" stroke-width="1.51"/><path d="M1903,431L1929,592L2036,529Z" fill="#b13c8b" stroke="#b13c8b" stroke-width="1.51"/><path d="M1938,140L1927,264L2028,201Z" fill="#b36397" stroke="#b36397" stroke-width="1.51"/><path d="M1743,-242L1810,-10L1879,-18Z" fill="#c27dab" stroke="#c27dab" stroke-width="1.51"/><path d="M1743,-242L1879,-18L1908,-262Z" fill="#c081ae" stroke="#c081ae" stroke-width="1.51"/><path d="M1809,845L1757,978L1919,1025Z" fill="#98017b" stroke="#98017b" stroke-width="1.51"/><path d="M1903,431L1823,445L1929,592Z" fill="#b6428e" stroke="#b6428e" stroke-width="1.51"/><path d="M1789,639L1924,730L1929,592Z" fill="#af2b89" stroke="#af2b89" stroke-width="1.51"/><path d="M1879,-18L1839,69L1938,140Z" fill="#ba71a0" stroke="#ba71a0" stroke-width="1.51"/><path d="M1829,192L1927,264L1938,140Z" fill="#b86599" stroke="#b86599" stroke-width="1.51"/><path d="M1919,1025L1783,1149L1950,1159Z" fill="#7e0178" stroke="#7e0178" stroke-width="1.51"/><path d="M1836,1270L1939,1257L1950,1159Z" fill="#6e0074" stroke="#6e0074" stroke-width="1.51"/><path d="M1924,730L1809,845L1958,806Z" fill="#a31783" stroke="#a31783" stroke-width="1.51"/><path d="M1809,845L1919,1025L1958,806Z" fill="#980a7d" stroke="#980a7d" stroke-width="1.51"/><path d="M1823,445L1903,431L1927,264Z" fill="#b85293" stroke="#b85293" stroke-width="1.51"/><path d="M1783,1149L1836,1270L1950,1159Z" fill="#770076" stroke="#770076" stroke-width="1.51"/><path d="M1829,192L1823,445L1927,264Z" fill="#ba5c97" stroke="#ba5c97" stroke-width="1.51"/><path d="M1823,445L1741,528L1929,592Z" fill="#ba3e8e" stroke="#ba3e8e" stroke-width="1.51"/><path d="M1839,69L1829,192L1938,140Z" fill="#bb6d9c" stroke="#bb6d9c" stroke-width="1.51"/><path d="M1743,-242L1685,-162L1810,-10Z" fill="#c982ae" stroke="#c982ae" stroke-width="1.51"/><path d="M1741,528L1789,639L1929,592Z" fill="#b8368c" stroke="#b8368c" stroke-width="1.51"/><path d="M1789,639L1809,845L1924,730Z" fill="#ad1e87" stroke="#ad1e87" stroke-width="1.51"/><path d="M1757,978L1783,1149L1919,1025Z" fill="#8b007a" stroke="#8b007a" stroke-width="1.51"/><path d="M1585,261L1823,445L1829,192Z" fill="#c55f99" stroke="#c55f99" stroke-width="1.51"/><path d="M1810,-10L1839,69L1879,-18Z" fill="#be75a3" stroke="#be75a3" stroke-width="1.51"/><path d="M139,1280L-157,1312L612,1338Z" fill="#aa6e9f" stroke="#aa6e9f" stroke-width="1.51"/><path d="M1789,639L1665,813L1809,845Z" fill="#b21b87" stroke="#b21b87" stroke-width="1.51"/><path d="M1685,-162L1642,-70L1810,-10Z" fill="#cb7fab" stroke="#cb7fab" stroke-width="1.51"/><path d="M1585,261L1579,399L1823,445Z" fill="#cb5997" stroke="#cb5997" stroke-width="1.51"/><path d="M1783,1149L1664,1287L1836,1270Z" fill="#7a0076" stroke="#7a0076" stroke-width="1.51"/><path d="M1635,50L1829,192L1839,69Z" fill="#c4719e" stroke="#c4719e" stroke-width="1.51"/><path d="M1810,-10L1635,50L1839,69Z" fill="#c676a3" stroke="#c676a3" stroke-width="1.51"/><path d="M1635,50L1585,261L1829,192Z" fill="#cc6e9d" stroke="#cc6e9d" stroke-width="1.51"/><path d="M1579,399L1741,528L1823,445Z" fill="#c64a92" stroke="#c64a92" stroke-width="1.51"/><path d="M1613,675L1665,813L1789,639Z" fill="#bd258a" stroke="#bd258a" stroke-width="1.51"/><path d="M1665,813L1757,978L1809,845Z" fill="#a60d81" stroke="#a60d81" stroke-width="1.51"/><path d="M1642,-70L1635,50L1810,-10Z" fill="#cc7ba7" stroke="#cc7ba7" stroke-width="1.51"/><path d="M1489,1258L1365,1321L1664,1287Z" fill="#890479" stroke="#890479" stroke-width="1.51"/><path d="M1585,1153L1664,1287L1783,1149Z" fill="#860078" stroke="#860078" stroke-width="1.51"/><path d="M1757,978L1612,980L1783,1149Z" fill="#96007b" stroke="#96007b" stroke-width="1.51"/><path d="M1612,980L1585,1153L1783,1149Z" fill="#94017b" stroke="#94017b" stroke-width="1.51"/><path d="M1741,528L1619,560L1789,639Z" fill="#c2388d" stroke="#c2388d" stroke-width="1.51"/><path d="M1619,560L1613,675L1789,639Z" fill="#c3338c" stroke="#c3338c" stroke-width="1.51"/><path d="M1665,813L1612,980L1757,978Z" fill="#a7067e" stroke="#a7067e" stroke-width="1.51"/><path d="M1579,399L1619,560L1741,528Z" fill="#cb4691" stroke="#cb4691" stroke-width="1.51"/><path d="M1438,-266L1685,-162L1743,-242Z" fill="#d58ab3" stroke="#d58ab3" stroke-width="1.51"/><path d="M1438,-266L1642,-70L1685,-162Z" fill="#d888b1" stroke="#d888b1" stroke-width="1.51"/><path d="M1492,38L1585,261L1635,50Z" fill="#d676a0" stroke="#d676a0" stroke-width="1.51"/><path d="M1438,-266L1388,-189L1642,-70Z" fill="#e08db5" stroke="#e08db5" stroke-width="1.51"/><path d="M1585,1153L1489,1258L1664,1287Z" fill="#8a0078" stroke="#8a0078" stroke-width="1.51"/><path d="M1613,675L1481,813L1665,813Z" fill="#c01d88" stroke="#c01d88" stroke-width="1.51"/><path d="M1481,813L1612,980L1665,813Z" fill="#b51182" stroke="#b51182" stroke-width="1.51"/><path d="M1492,38L1523,270L1585,261Z" fill="#d9719e" stroke="#d9719e" stroke-width="1.51"/><path d="M1476,1035L1585,1153L1612,980Z" fill="#a1017d" stroke="#a1017d" stroke-width="1.51"/><path d="M1531,658L1481,813L1613,675Z" fill="#c9278c" stroke="#c9278c" stroke-width="1.51"/><path d="M1531,658L1613,675L1619,560Z" fill="#ca338d" stroke="#ca338d" stroke-width="1.51"/><path d="M1388,-189L1439,-21L1642,-70Z" fill="#df88b1" stroke="#df88b1" stroke-width="1.51"/><path d="M1492,38L1635,50L1642,-70Z" fill="#d67da7" stroke="#d67da7" stroke-width="1.51"/><path d="M1439,-21L1492,38L1642,-70Z" fill="#dc81aa" stroke="#dc81aa" stroke-width="1.51"/><path d="M1579,399L1477,595L1619,560Z" fill="#d34491" stroke="#d34491" stroke-width="1.51"/><path d="M1523,270L1579,399L1585,261Z" fill="#d5639a" stroke="#d5639a" stroke-width="1.51"/><path d="M1481,813L1476,1035L1612,980Z" fill="#b20880" stroke="#b20880" stroke-width="1.51"/><path d="M1477,595L1531,658L1619,560Z" fill="#d0388e" stroke="#d0388e" stroke-width="1.51"/><path d="M1492,1162L1489,1258L1585,1153Z" fill="#94047b" stroke="#94047b" stroke-width="1.51"/><path d="M1476,1035L1492,1162L1585,1153Z" fill="#9d057d" stroke="#9d057d" stroke-width="1.51"/><path d="M1523,270L1470,362L1579,399Z" fill="#d8619a" stroke="#d8619a" stroke-width="1.51"/><path d="M1470,362L1477,595L1579,399Z" fill="#d85296" stroke="#d85296" stroke-width="1.51"/><path d="M529,-259L706,-223L837,-223Z" fill="#ffc6d0" stroke="#ffc6d0" stroke-width="1.51"/><path d="M1470,362L1329,552L1477,595Z" fill="#de4e97" stroke="#de4e97" stroke-width="1.51"/><path d="M1373,827L1476,1035L1481,813Z" fill="#be1986" stroke="#be1986" stroke-width="1.51"/><path d="M1331,57L1330,256L1492,38Z" fill="#e57fa7" stroke="#e57fa7" stroke-width="1.51"/><path d="M1492,38L1330,256L1523,270Z" fill="#df75a2" stroke="#df75a2" stroke-width="1.51"/><path d="M1310,706L1481,813L1531,658Z" fill="#d02c90" stroke="#d02c90" stroke-width="1.51"/><path d="M1477,595L1310,706L1531,658Z" fill="#d53792" stroke="#d53792" stroke-width="1.51"/><path d="M1323,384L1329,552L1470,362Z" fill="#e25b9c" stroke="#e25b9c" stroke-width="1.51"/><path d="M1373,827L1308,999L1476,1035Z" fill="#bb1585" stroke="#bb1585" stroke-width="1.51"/><path d="M1330,256L1470,362L1523,270Z" fill="#df6aa0" stroke="#df6aa0" stroke-width="1.51"/><path d="M1388,-189L1329,-59L1439,-21Z" fill="#e78db4" stroke="#e78db4" stroke-width="1.51"/><path d="M1310,706L1373,827L1481,813Z" fill="#cf288f" stroke="#cf288f" stroke-width="1.51"/><path d="M1372,1174L1489,1258L1492,1162Z" fill="#980b7e" stroke="#980b7e" stroke-width="1.51"/><path d="M1476,1035L1372,1174L1492,1162Z" fill="#a10d80" stroke="#a10d80" stroke-width="1.51"/><path d="M1439,-21L1331,57L1492,38Z" fill="#e483ac" stroke="#e483ac" stroke-width="1.51"/><path d="M1372,1174L1365,1321L1489,1258Z" fill="#950e7e" stroke="#950e7e" stroke-width="1.51"/><path d="M1066,-222L1233,-160L1438,-266Z" fill="#f39cc1" stroke="#f39cc1" stroke-width="1.51"/><path d="M1308,999L1372,1174L1476,1035Z" fill="#ad1483" stroke="#ad1483" stroke-width="1.51"/><path d="M1329,552L1310,706L1477,595Z" fill="#dc4096" stroke="#dc4096" stroke-width="1.51"/><path d="M1330,256L1323,384L1470,362Z" fill="#e46aa1" stroke="#e46aa1" stroke-width="1.51"/><path d="M1233,-160L1388,-189L1438,-266Z" fill="#eb95bc" stroke="#eb95bc" stroke-width="1.51"/><path d="M1329,-59L1331,57L1439,-21Z" fill="#e889b0" stroke="#e889b0" stroke-width="1.51"/><path d="M1170,134L1330,256L1331,57Z" fill="#ed82ab" stroke="#ed82ab" stroke-width="1.51"/><path d="M1238,1238L996,1326L1365,1321Z" fill="#9e2084" stroke="#9e2084" stroke-width="1.51"/><path d="M1308,999L1227,1098L1372,1174Z" fill="#b01b86" stroke="#b01b86" stroke-width="1.51"/><path d="M1238,1238L1365,1321L1372,1174Z" fill="#9c1582" stroke="#9c1582" stroke-width="1.51"/><path d="M1239,885L1308,999L1373,827Z" fill="#c7228b" stroke="#c7228b" stroke-width="1.51"/><path d="M1233,-160L1329,-59L1388,-189Z" fill="#ed93ba" stroke="#ed93ba" stroke-width="1.51"/><path d="M1310,706L1239,885L1373,827Z" fill="#d22c91" stroke="#d22c91" stroke-width="1.51"/><path d="M1227,1098L1238,1238L1372,1174Z" fill="#a81b86" stroke="#a81b86" stroke-width="1.51"/><path d="M1323,384L1178,524L1329,552Z" fill="#e9589e" stroke="#e9589e" stroke-width="1.51"/><path d="M1183,699L1239,885L1310,706Z" fill="#db3496" stroke="#db3496" stroke-width="1.51"/><path d="M1183,699L1310,706L1329,552Z" fill="#e24199" stroke="#e24199" stroke-width="1.51"/><path d="M1178,524L1183,699L1329,552Z" fill="#e94c9c" stroke="#e94c9c" stroke-width="1.51"/><path d="M1233,-160L1222,-102L1329,-59Z" fill="#f195bb" stroke="#f195bb" stroke-width="1.51"/><path d="M1138,338L1323,384L1330,256Z" fill="#ec70a6" stroke="#ec70a6" stroke-width="1.51"/><path d="M1157,213L1138,338L1330,256Z" fill="#f07aa9" stroke="#f07aa9" stroke-width="1.51"/><path d="M1170,134L1157,213L1330,256Z" fill="#f080aa" stroke="#f080aa" stroke-width="1.51"/><path d="M1329,-59L1222,-102L1331,57Z" fill="#ee8eb5" stroke="#ee8eb5" stroke-width="1.51"/><path d="M1222,-102L1170,134L1331,57Z" fill="#f18db3" stroke="#f18db3" stroke-width="1.51"/><path d="M1138,338L1178,524L1323,384Z" fill="#ed67a3" stroke="#ed67a3" stroke-width="1.51"/><path d="M1239,885L1151,1014L1308,999Z" fill="#c5248b" stroke="#c5248b" stroke-width="1.51"/><path d="M1151,1014L1227,1098L1308,999Z" fill="#bc2389" stroke="#bc2389" stroke-width="1.51"/><path d="M431,1288L139,1280L612,1338Z" fill="#aa6597" stroke="#aa6597" stroke-width="1.51"/><path d="M1138,338L1070,380L1178,524Z" fill="#f16ea4" stroke="#f16ea4" stroke-width="1.51"/><path d="M1078,703L1027,804L1183,699Z" fill="#e5469b" stroke="#e5469b" stroke-width="1.51"/><path d="M1178,524L1075,558L1183,699Z" fill="#ec539d" stroke="#ec539d" stroke-width="1.51"/><path d="M1012,-89L1170,134L1222,-102Z" fill="#f697b8" stroke="#f697b8" stroke-width="1.51"/><path d="M1227,1098L1084,1179L1238,1238Z" fill="#ad2588" stroke="#ad2588" stroke-width="1.51"/><path d="M1084,1179L996,1326L1238,1238Z" fill="#a72b87" stroke="#a72b87" stroke-width="1.51"/><path d="M1058,1005L1151,1014L1239,885Z" fill="#c82d8c" stroke="#c82d8c" stroke-width="1.51"/><path d="M1027,804L1058,1005L1239,885Z" fill="#d23790" stroke="#d23790" stroke-width="1.51"/><path d="M1183,699L1027,804L1239,885Z" fill="#dc3b96" stroke="#dc3b96" stroke-width="1.51"/><path d="M1066,-222L1222,-102L1233,-160Z" fill="#f69ebf" stroke="#f69ebf" stroke-width="1.51"/><path d="M1151,1014L1084,1179L1227,1098Z" fill="#b72a8a" stroke="#b72a8a" stroke-width="1.51"/><path d="M1066,-222L1012,-89L1222,-102Z" fill="#f9a1bf" stroke="#f9a1bf" stroke-width="1.51"/><path d="M1058,1005L1084,1179L1151,1014Z" fill="#be308b" stroke="#be308b" stroke-width="1.51"/><path d="M1012,-89L1013,143L1170,134Z" fill="#f896b3" stroke="#f896b3" stroke-width="1.51"/><path d="M1070,380L1075,558L1178,524Z" fill="#f165a1" stroke="#f165a1" stroke-width="1.51"/><path d="M1075,558L1078,703L1183,699Z" fill="#ea4f9c" stroke="#ea4f9c" stroke-width="1.51"/><path d="M981,259L1138,338L1157,213Z" fill="#f582ab" stroke="#f582ab" stroke-width="1.51"/><path d="M1013,143L1157,213L1170,134Z" fill="#f58cad" stroke="#f58cad" stroke-width="1.51"/><path d="M1013,143L981,259L1157,213Z" fill="#f78bad" stroke="#f78bad" stroke-width="1.51"/><path d="M981,259L1070,380L1138,338Z" fill="#f57faa" stroke="#f57faa" stroke-width="1.51"/><path d="M1012,-89L924,103L1013,143Z" fill="#fb9db5" stroke="#fb9db5" stroke-width="1.51"/><path d="M1027,804L832,998L1058,1005Z" fill="#d44091" stroke="#d44091" stroke-width="1.51"/><path d="M842,428L846,488L1070,380Z" fill="#f97ba7" stroke="#f97ba7" stroke-width="1.51"/><path d="M1070,380L846,488L1075,558Z" fill="#f66ea4" stroke="#f66ea4" stroke-width="1.51"/><path d="M1075,558L851,723L1078,703Z" fill="#ee579e" stroke="#ee579e" stroke-width="1.51"/><path d="M1058,1005L832,1175L1084,1179Z" fill="#bb398c" stroke="#bb398c" stroke-width="1.51"/><path d="M832,1175L996,1326L1084,1179Z" fill="#af378a" stroke="#af378a" stroke-width="1.51"/><path d="M832,998L832,1175L1058,1005Z" fill="#c5438f" stroke="#c5438f" stroke-width="1.51"/><path d="M846,488L851,723L1075,558Z" fill="#f566a1" stroke="#f566a1" stroke-width="1.51"/><path d="M851,723L1027,804L1078,703Z" fill="#e94e9c" stroke="#e94e9c" stroke-width="1.51"/><path d="M848,798L832,998L1027,804Z" fill="#dd4e97" stroke="#dd4e97" stroke-width="1.51"/><path d="M837,-223L1012,-89L1066,-222Z" fill="#feacc4" stroke="#feacc4" stroke-width="1.51"/><path d="M981,259L842,428L1070,380Z" fill="#f982aa" stroke="#f982aa" stroke-width="1.51"/><path d="M832,1175L870,1335L996,1326Z" fill="#aa3e8a" stroke="#aa3e8a" stroke-width="1.51"/><path d="M833,-66L924,103L1012,-89Z" fill="#fda6bb" stroke="#fda6bb" stroke-width="1.51"/><path d="M851,723L848,798L1027,804Z" fill="#e7549c" stroke="#e7549c" stroke-width="1.51"/><path d="M924,103L854,188L981,259Z" fill="#fb97b0" stroke="#fb97b0" stroke-width="1.51"/><path d="M837,-223L833,-66L1012,-89Z" fill="#feafc3" stroke="#feafc3" stroke-width="1.51"/><path d="M924,103L981,259L1013,143Z" fill="#fa94af" stroke="#fa94af" stroke-width="1.51"/><path d="M783,222L842,428L854,188Z" fill="#fa96b1" stroke="#fa96b1" stroke-width="1.51"/><path d="M854,188L842,428L981,259Z" fill="#fa8fae" stroke="#fa8fae" stroke-width="1.51"/><path d="M761,818L832,998L848,798Z" fill="#dd579a" stroke="#dd579a" stroke-width="1.51"/><path d="M846,488L778,495L851,723Z" fill="#f673a5" stroke="#f673a5" stroke-width="1.51"/><path d="M729,55L854,188L924,103Z" fill="#fca5b5" stroke="#fca5b5" stroke-width="1.51"/><path d="M833,-66L729,55L924,103Z" fill="#fcabbc" stroke="#fcabbc" stroke-width="1.51"/><path d="M832,998L743,1087L832,1175Z" fill="#c24e92" stroke="#c24e92" stroke-width="1.51"/><path d="M733,-84L833,-66L837,-223Z" fill="#feb7c7" stroke="#feb7c7" stroke-width="1.51"/><path d="M783,222L684,429L842,428Z" fill="#fa93b0" stroke="#fa93b0" stroke-width="1.51"/><path d="M778,495L750,739L851,723Z" fill="#f16da4" stroke="#f16da4" stroke-width="1.51"/><path d="M729,55L783,222L854,188Z" fill="#fba5b5" stroke="#fba5b5" stroke-width="1.51"/><path d="M832,1175L726,1337L870,1335Z" fill="#aa478d" stroke="#aa478d" stroke-width="1.51"/><path d="M761,818L700,1019L832,998Z" fill="#d55796" stroke="#d55796" stroke-width="1.51"/><path d="M706,-223L733,-84L837,-223Z" fill="#febdca" stroke="#febdca" stroke-width="1.51"/><path d="M842,428L778,495L846,488Z" fill="#f980a9" stroke="#f980a9" stroke-width="1.51"/><path d="M750,739L848,798L851,723Z" fill="#ea60a1" stroke="#ea60a1" stroke-width="1.51"/><path d="M733,-84L729,55L833,-66Z" fill="#fcb4c2" stroke="#fcb4c2" stroke-width="1.51"/><path d="M750,739L761,818L848,798Z" fill="#e760a0" stroke="#e760a0" stroke-width="1.51"/><path d="M586,655L750,739L778,495Z" fill="#f477a8" stroke="#f477a8" stroke-width="1.51"/><path d="M684,429L778,495L842,428Z" fill="#f987ac" stroke="#f987ac" stroke-width="1.51"/><path d="M626,1113L726,1337L743,1087Z" fill="#b75594" stroke="#b75594" stroke-width="1.51"/><path d="M700,1019L743,1087L832,998Z" fill="#c95495" stroke="#c95495" stroke-width="1.51"/><path d="M743,1087L726,1337L832,1175Z" fill="#b44d91" stroke="#b44d91" stroke-width="1.51"/><path d="M626,1113L612,1338L726,1337Z" fill="#ae5693" stroke="#ae5693" stroke-width="1.51"/><path d="M534,826L700,1019L761,818Z" fill="#dc659d" stroke="#dc659d" stroke-width="1.51"/><path d="M684,429L562,519L778,495Z" fill="#f98bad" stroke="#f98bad" stroke-width="1.51"/><path d="M562,519L586,655L778,495Z" fill="#f884ab" stroke="#f884ab" stroke-width="1.51"/><path d="M729,55L600,258L783,222Z" fill="#fbaab8" stroke="#fbaab8" stroke-width="1.51"/><path d="M600,258L684,429L783,222Z" fill="#faa0b5" stroke="#faa0b5" stroke-width="1.51"/><path d="M540,119L600,258L729,55Z" fill="#fbb3bb" stroke="#fbb3bb" stroke-width="1.51"/><path d="M750,739L534,826L761,818Z" fill="#e76aa3" stroke="#e76aa3" stroke-width="1.51"/><path d="M275,1261L139,1280L431,1288Z" fill="#ae6c9c" stroke="#ae6c9c" stroke-width="1.51"/><path d="M600,258L559,335L684,429Z" fill="#faa1b5" stroke="#faa1b5" stroke-width="1.51"/><path d="M534,826L591,1033L700,1019Z" fill="#d4649a" stroke="#d4649a" stroke-width="1.51"/><path d="M568,-75L729,55L733,-84Z" fill="#fcbbc5" stroke="#fcbbc5" stroke-width="1.51"/><path d="M586,655L534,826L750,739Z" fill="#ed73a7" stroke="#ed73a7" stroke-width="1.51"/><path d="M706,-223L568,-75L733,-84Z" fill="#fdc1cb" stroke="#fdc1cb" stroke-width="1.51"/><path d="M700,1019L626,1113L743,1087Z" fill="#c55997" stroke="#c55997" stroke-width="1.51"/><path d="M568,-75L540,119L729,55Z" fill="#fcbbc2" stroke="#fcbbc2" stroke-width="1.51"/><path d="M591,1033L626,1113L700,1019Z" fill="#c75e99" stroke="#c75e99" stroke-width="1.51"/><path d="M529,-259L568,-75L706,-223Z" fill="#fecacf" stroke="#fecacf" stroke-width="1.51"/><path d="M490,65L540,119L568,-75Z" fill="#fcc0c3" stroke="#fcc0c3" stroke-width="1.51"/><path d="M559,335L562,519L684,429Z" fill="#fa97b1" stroke="#fa97b1" stroke-width="1.51"/><path d="M90,-227L335,-163L529,-259Z" fill="#fedcd8" stroke="#fedcd8" stroke-width="1.51"/><path d="M529,-259L462,-116L568,-75Z" fill="#fdcdcf" stroke="#fdcdcf" stroke-width="1.51"/><path d="M475,727L534,826L586,655Z" fill="#ee7aa9" stroke="#ee7aa9" stroke-width="1.51"/><path d="M591,1033L408,1110L626,1113Z" fill="#c5649a" stroke="#c5649a" stroke-width="1.51"/><path d="M408,1110L431,1288L626,1113Z" fill="#b96499" stroke="#b96499" stroke-width="1.51"/><path d="M431,1288L612,1338L626,1113Z" fill="#b05d95" stroke="#b05d95" stroke-width="1.51"/><path d="M444,-175L462,-116L529,-259Z" fill="#fed1d2" stroke="#fed1d2" stroke-width="1.51"/><path d="M562,519L475,542L586,655Z" fill="#f88aac" stroke="#f88aac" stroke-width="1.51"/><path d="M534,826L385,1036L591,1033Z" fill="#d46b9c" stroke="#d46b9c" stroke-width="1.51"/><path d="M396,844L385,1036L534,826Z" fill="#dc74a1" stroke="#dc74a1" stroke-width="1.51"/><path d="M559,335L475,542L562,519Z" fill="#fb97b1" stroke="#fb97b1" stroke-width="1.51"/><path d="M397,232L559,335L600,258Z" fill="#fbaeb9" stroke="#fbaeb9" stroke-width="1.51"/><path d="M540,119L397,232L600,258Z" fill="#fcb5bb" stroke="#fcb5bb" stroke-width="1.51"/><path d="M396,335L475,542L559,335Z" fill="#fba2b5" stroke="#fba2b5" stroke-width="1.51"/><path d="M385,1036L408,1110L591,1033Z" fill="#c86a9b" stroke="#c86a9b" stroke-width="1.51"/><path d="M475,542L475,727L586,655Z" fill="#f485ab" stroke="#f485ab" stroke-width="1.51"/><path d="M397,232L396,335L559,335Z" fill="#fbb0ba" stroke="#fbb0ba" stroke-width="1.51"/><path d="M462,-116L490,65L568,-75Z" fill="#fcc7c9" stroke="#fcc7c9" stroke-width="1.51"/><path d="M396,335L331,403L475,542Z" fill="#fba4b5" stroke="#fba4b5" stroke-width="1.51"/><path d="M335,-163L444,-175L529,-259Z" fill="#fed5d3" stroke="#fed5d3" stroke-width="1.51"/><path d="M490,65L397,232L540,119Z" fill="#fcbdbe" stroke="#fcbdbe" stroke-width="1.51"/><path d="M475,727L396,844L534,826Z" fill="#e879a7" stroke="#e879a7" stroke-width="1.51"/><path d="M475,542L331,591L475,727Z" fill="#f68dae" stroke="#f68dae" stroke-width="1.51"/><path d="M276,115L397,232L490,65Z" fill="#fcc3bf" stroke="#fcc3bf" stroke-width="1.51"/><path d="M462,-116L273,-32L490,65Z" fill="#fdccca" stroke="#fdccca" stroke-width="1.51"/><path d="M273,-32L276,115L490,65Z" fill="#fdcbc6" stroke="#fdcbc6" stroke-width="1.51"/><path d="M331,403L331,591L475,542Z" fill="#fb9bb1" stroke="#fb9bb1" stroke-width="1.51"/><path d="M331,591L238,671L475,727Z" fill="#f48eae" stroke="#f48eae" stroke-width="1.51"/><path d="M238,671L281,817L475,727Z" fill="#f087ad" stroke="#f087ad" stroke-width="1.51"/><path d="M281,817L396,844L475,727Z" fill="#e980a8" stroke="#e980a8" stroke-width="1.51"/><path d="M408,1110L315,1114L431,1288Z" fill="#ba6b9b" stroke="#ba6b9b" stroke-width="1.51"/><path d="M315,1114L275,1261L431,1288Z" fill="#b56c9b" stroke="#b56c9b" stroke-width="1.51"/><path d="M444,-175L335,-163L462,-116Z" fill="#fed3d1" stroke="#fed3d1" stroke-width="1.51"/><path d="M335,-163L273,-32L462,-116Z" fill="#fdd4d0" stroke="#fdd4d0" stroke-width="1.51"/><path d="M244,1013L385,1036L396,844Z" fill="#d676a0" stroke="#d676a0" stroke-width="1.51"/><path d="M281,817L244,1013L396,844Z" fill="#df7da5" stroke="#df7da5" stroke-width="1.51"/><path d="M249,225L396,335L397,232Z" fill="#fcb9bd" stroke="#fcb9bd" stroke-width="1.51"/><path d="M276,115L249,225L397,232Z" fill="#fcc2c1" stroke="#fcc2c1" stroke-width="1.51"/><path d="M385,1036L315,1114L408,1110Z" fill="#c5709d" stroke="#c5709d" stroke-width="1.51"/><path d="M249,225L331,403L396,335Z" fill="#fbb5bd" stroke="#fbb5bd" stroke-width="1.51"/><path d="M244,1013L315,1114L385,1036Z" fill="#ca73a0" stroke="#ca73a0" stroke-width="1.51"/><path d="M180,1190L275,1261L315,1114Z" fill="#b971a0" stroke="#b971a0" stroke-width="1.51"/><path d="M97,594L238,671L331,591Z" fill="#f898b5" stroke="#f898b5" stroke-width="1.51"/><path d="M97,594L331,591L331,403Z" fill="#fca0b6" stroke="#fca0b6" stroke-width="1.51"/><path d="M97,371L97,594L331,403Z" fill="#fdacbd" stroke="#fdacbd" stroke-width="1.51"/><path d="M249,225L97,371L331,403Z" fill="#fcb8c1" stroke="#fcb8c1" stroke-width="1.51"/><path d="M90,-227L273,-32L335,-163Z" fill="#fedbd8" stroke="#fedbd8" stroke-width="1.51"/><path d="M177,787L88,953L244,1013Z" fill="#dd81aa" stroke="#dd81aa" stroke-width="1.51"/><path d="M90,-227L113,-29L273,-32Z" fill="#fddcd9" stroke="#fddcd9" stroke-width="1.51"/><path d="M177,787L244,1013L281,817Z" fill="#e181aa" stroke="#e181aa" stroke-width="1.51"/><path d="M238,671L177,787L281,817Z" fill="#ef8ab1" stroke="#ef8ab1" stroke-width="1.51"/><path d="M244,1013L180,1190L315,1114Z" fill="#c475a2" stroke="#c475a2" stroke-width="1.51"/><path d="M97,103L249,225L276,115Z" fill="#fdcac7" stroke="#fdcac7" stroke-width="1.51"/><path d="M273,-32L113,-29L276,115Z" fill="#fdd2ce" stroke="#fdd2ce" stroke-width="1.51"/><path d="M113,-29L97,103L276,115Z" fill="#fdd2ce" stroke="#fdd2ce" stroke-width="1.51"/><path d="M180,1190L139,1280L275,1261Z" fill="#b271a1" stroke="#b271a1" stroke-width="1.51"/><path d="M88,953L180,1190L244,1013Z" fill="#cb7aa6" stroke="#cb7aa6" stroke-width="1.51"/><path d="M97,103L82,211L249,225Z" fill="#fdcbc9" stroke="#fdcbc9" stroke-width="1.51"/><path d="M82,211L97,371L249,225Z" fill="#fdc2c6" stroke="#fdc2c6" stroke-width="1.51"/><path d="M90,734L177,787L238,671Z" fill="#f18fb5" stroke="#f18fb5" stroke-width="1.51"/><path d="M-20,1243L-157,1312L139,1280Z" fill="#af79a8" stroke="#af79a8" stroke-width="1.51"/><path d="M88,953L9,1001L180,1190Z" fill="#cc7eaa" stroke="#cc7eaa" stroke-width="1.51"/><path d="M97,594L90,734L238,671Z" fill="#f597b8" stroke="#f597b8" stroke-width="1.51"/><path d="M-15,540L97,594L97,371Z" fill="#fdacc1" stroke="#fdacc1" stroke-width="1.51"/><path d="M90,-227L5,-174L113,-29Z" fill="#fee3e0" stroke="#fee3e0" stroke-width="1.51"/><path d="M90,734L88,953L177,787Z" fill="#e88bb2" stroke="#e88bb2" stroke-width="1.51"/><path d="M9,1001L-2,1169L180,1190Z" fill="#c37daa" stroke="#c37daa" stroke-width="1.51"/><path d="M-2,1169L139,1280L180,1190Z" fill="#b676a6" stroke="#b676a6" stroke-width="1.51"/><path d="M-45,829L88,953L90,734Z" fill="#e78db4" stroke="#e78db4" stroke-width="1.51"/><path d="M-12,267L2,345L82,211Z" fill="#fdc7cc" stroke="#fdc7cc" stroke-width="1.51"/><path d="M-214,-192L5,-174L90,-227Z" fill="#feeae7" stroke="#feeae7" stroke-width="1.51"/><path d="M5,736L-45,829L90,734Z" fill="#ef93ba" stroke="#ef93ba" stroke-width="1.51"/><path d="M82,211L2,345L97,371Z" fill="#fcc2c9" stroke="#fcc2c9" stroke-width="1.51"/><path d="M-2,1169L-20,1243L139,1280Z" fill="#b479a8" stroke="#b479a8" stroke-width="1.51"/><path d="M5,736L90,734L97,594Z" fill="#f499bb" stroke="#f499bb" stroke-width="1.51"/><path d="M2,345L-15,540L97,371Z" fill="#fdb7c6" stroke="#fdb7c6" stroke-width="1.51"/><path d="M36,123L82,211L97,103Z" fill="#fdd1cd" stroke="#fdd1cd" stroke-width="1.51"/><path d="M36,123L97,103L113,-29Z" fill="#fdd6d2" stroke="#fdd6d2" stroke-width="1.51"/><path d="M-39,-54L36,123L113,-29Z" fill="#fddbd7" stroke="#fddbd7" stroke-width="1.51"/><path d="M5,-174L-39,-54L113,-29Z" fill="#fde2de" stroke="#fde2de" stroke-width="1.51"/><path d="M-45,829L9,1001L88,953Z" fill="#dd87b0" stroke="#dd87b0" stroke-width="1.51"/><path d="M-15,540L5,736L97,594Z" fill="#f9a0be" stroke="#f9a0be" stroke-width="1.51"/><path d="M36,123L-12,267L82,211Z" fill="#fdcdcd" stroke="#fdcdcd" stroke-width="1.51"/><path d="M-127,344L-15,540L2,345Z" fill="#febbc9" stroke="#febbc9" stroke-width="1.51"/><path d="M-15,540L-155,590L5,736Z" fill="#faa4c0" stroke="#faa4c0" stroke-width="1.51"/><path d="M-155,590L-147,719L5,736Z" fill="#f69fc1" stroke="#f69fc1" stroke-width="1.51"/><path d="M-45,829L-148,939L9,1001Z" fill="#de8ab3" stroke="#de8ab3" stroke-width="1.51"/><path d="M-118,1091L-2,1169L9,1001Z" fill="#c881ae" stroke="#c881ae" stroke-width="1.51"/><path d="M-39,-54L-176,-11L36,123Z" fill="#fededa" stroke="#fededa" stroke-width="1.51"/><path d="M-176,-11L-210,141L36,123Z" fill="#fddcd8" stroke="#fddcd8" stroke-width="1.51"/><path d="M-203,194L-12,267L36,123Z" fill="#fed1d1" stroke="#fed1d1" stroke-width="1.51"/><path d="M-210,141L-203,194L36,123Z" fill="#fed7d5" stroke="#fed7d5" stroke-width="1.51"/><path d="M-148,939L-118,1091L9,1001Z" fill="#d387b1" stroke="#d387b1" stroke-width="1.51"/><path d="M-127,344L-155,590L-15,540Z" fill="#feb3c7" stroke="#feb3c7" stroke-width="1.51"/><path d="M-12,267L-127,344L2,345Z" fill="#fdc5cd" stroke="#fdc5cd" stroke-width="1.51"/><path d="M-147,719L-45,829L5,736Z" fill="#f197bd" stroke="#f197bd" stroke-width="1.51"/><path d="M-214,-192L-39,-54L5,-174Z" fill="#fee9e5" stroke="#fee9e5" stroke-width="1.51"/><path d="M-118,1091L-20,1243L-2,1169Z" fill="#bd7ead" stroke="#bd7ead" stroke-width="1.51"/><path d="M-158,873L-148,939L-45,829Z" fill="#e390b8" stroke="#e390b8" stroke-width="1.51"/><path d="M-203,194L-127,344L-12,267Z" fill="#feccd1" stroke="#feccd1" stroke-width="1.51"/><path d="M-118,1091L-157,1312L-20,1243Z" fill="#b77ead" stroke="#b77ead" stroke-width="1.51"/><path d="M-214,-192L-176,-11L-39,-54Z" fill="#fee8e5" stroke="#fee8e5" stroke-width="1.51"/><path d="M-147,719L-158,873L-45,829Z" fill="#ec96bc" stroke="#ec96bc" stroke-width="1.51"/><path d="M-203,194L-155,590L-127,344Z" fill="#ffc3cf" stroke="#ffc3cf" stroke-width="1.51"/><path d="M-148,939L-157,1312L-118,1091Z" fill="#c484b2" stroke="#c484b2" stroke-width="1.51"/><path d="M-158,873L-157,1312L-148,939Z" fill="#cf88b3" stroke="#cf88b3" stroke-width="1.51"/><path d="M-155,590L-158,873L-147,719Z" fill="#f49dc2" stroke="#f49dc2" stroke-width="1.51"/><path d="M-158,873L-210,141L-157,1312Z" fill="#f09ac0" stroke="#f09ac0" stroke-width="1.51"/><path d="M-203,194L-158,873L-155,590Z" fill="#feafc6" stroke="#feafc6" stroke-width="1.51"/><path d="M-203,194L-210,141L-158,873Z" fill="#ffc1ce" stroke="#ffc1ce" stroke-width="1.51"/><path d="M-214,-192L-210,141L-176,-11Z" fill="#fee6e2" stroke="#fee6e2" stroke-width="1.51"/></svg>