<svg xmlns="http://www.w3.org/2000/svg" width="1920" height="1080"><path d="M529,-259L837,-223L1066,-222Z" fill="#ffce83" stroke="#ffce83" stroke-width="1.51"/><path d="M996,1326L870,1335L1365,1321Z" fill="#c3442f" stroke="#c3442f" stroke-width="1.51"/><path d="M529,-259L1066,-222L1438,-266Z" fill="#ffc17e" stroke="#ffc17e" stroke-width="1.51"/><path d="M1438,-266L1743,-242L1908,-262Z" fill="#f3986e" stroke="#f3986e" stroke-width="1.51"/><path d="M2036,529L1929,592L2054,720Z" fill="#ce472e" stroke="#ce472e" stroke-width="1.51"/><path d="M2043,-29L2069,126L2073,-216Z" fill="#ce825b" stroke="#ce825b" stroke-width="1.51"/><path d="M1836,1270L1664,1287L2090,1316Z" fill="#a80026" stroke="#a80026" stroke-width="1.51"/><path d="M1664,1287L1365,1321L2090,1316Z" fill="#b00625" stroke="#b00625" stroke-width="1.51"/><path d="M1939,1257L1836,1270L2090,1316Z" fill="#a00026" stroke="#a00026" stroke-width="1.51"/><path d="M2054,1184L1939,1257L2090,1316Z" fill="#9d0026" stroke="#9d0026" stroke-width="1.51"/><path d="M2028,201L1927,264L2092,439Z" fill="#cf6a3c" stroke="#cf6a3c" stroke-width="1.51"/><path d="M1927,264L1903,431L2092,439Z" fill="#d36437" stroke="#d36437" stroke-width="1.51"/><path d="M2069,126L2028,201L2092,439Z" fill="#ca6d40" stroke="#ca6d40" stroke-width="1.51"/><path d="M2036,529L2054,720L2092,439Z" fill="#c84e31" stroke="#c84e31" stroke-width="1.51"/><path d="M2073,-216L2069,126L2092,439Z" fill="#ca7a4d" stroke="#ca7a4d" stroke-width="1.51"/><path d="M1958,806L1919,1025L2095,991Z" fill="#c31023" stroke="#c31023" stroke-width="1.51"/><path d="M1950,1159L2054,1184L2095,991Z" fill="#af0225" stroke="#af0225" stroke-width="1.51"/><path d="M1919,1025L1950,1159L2095,991Z" fill="#b90624" stroke="#b90624" stroke-width="1.51"/><path d="M2054,1184L2090,1316L2095,991Z" fill="#a60026" stroke="#a60026" stroke-width="1.51"/><path d="M1958,806L2095,991L2106,846Z" fill="#c01a25" stroke="#c01a25" stroke-width="1.51"/><path d="M2054,720L1958,806L2106,846Z" fill="#c72728" stroke="#c72728" stroke-width="1.51"/><path d="M2092,439L2054,720L2106,846Z" fill="#c53c2c" stroke="#c53c2c" stroke-width="1.51"/><path d="M2095,991L2090,1316L2106,846Z" fill="#ae0624" stroke="#ae0624" stroke-width="1.51"/><path d="M2043,-29L1938,140L2069,126Z" fill="#d27e50" stroke="#d27e50" stroke-width="1.51"/><path d="M1908,-262L2043,-29L2073,-216Z" fill="#d58a68" stroke="#d58a68" stroke-width="1.51"/><path d="M1903,431L2036,529L2092,439Z" fill="#ce5b34" stroke="#ce5b34" stroke-width="1.51"/><path d="M1908,-262L1879,-18L2043,-29Z" fill="#dc8961" stroke="#dc8961" stroke-width="1.51"/><path d="M1929,592L1924,730L2054,720Z" fill="#d13c2b" stroke="#d13c2b" stroke-width="1.51"/><path d="M1879,-18L1938,140L2043,-29Z" fill="#d98255" stroke="#d98255" stroke-width="1.51"/><path d="M1938,140L2028,201L2069,126Z" fill="#d17949" stroke="#d17949" stroke-width="1.51"/><path d="M1950,1159L1939,1257L2054,1184Z" fill="#aa0026" stroke="#aa0026" stroke-width="1.51"/><path d="M1924,730L1958,806L2054,720Z" fill="#cf2d29" stroke="#cf2d29" stroke-width="1.51"/><path d="M1903,431L1929,592L2036,529Z" fill="#d35732" stroke="#d35732" stroke-width="1.51"/><path d="M1938,140L1927,264L2028,201Z" fill="#d67645" stroke="#d67645" stroke-width="1.51"/><path d="M1743,-242L1810,-10L1879,-18Z" fill="#e88d5f" stroke="#e88d5f" stroke-width="1.51"/><path d="M1743,-242L1879,-18L1908,-262Z" fill="#e79068" stroke="#e79068" stroke-width="1.51"/><path d="M1809,845L1757,978L1919,1025Z" fill="#d21021" stroke="#d21021" stroke-width="1.51"/><path d="M1903,431L1823,445L1929,592Z" fill="#db5c33" stroke="#db5c33" stroke-width="1.51"/><path d="M1789,639L1924,730L1929,592Z" fill="#db432c" stroke="#db432c" stroke-width="1.51"/><path d="M1879,-18L1839,69L1938,140Z" fill="#e18351" stroke="#e18351" stroke-width="1.51"/><path d="M1829,192L1927,264L1938,140Z" fill="#dd7945" stroke="#dd7945" stroke-width="1.51"/><path d="M1919,1025L1783,1149L1950,1159Z" fill="#bf0325" stroke="#bf0325" stroke-width="1.51"/><path d="M1836,1270L1939,1257L1950,1159Z" fill="#ad0026" stroke="#ad0026" stroke-width="1.51"/><path d="M1924,730L1809,845L1958,806Z" fill="#d52927" stroke="#d52927" stroke-width="1.51"/><path d="M1809,845L1919,1025L1958,806Z" fill="#d01b24" stroke="#d01b24" stroke-width="1.51"/><path d="M1823,445L1903,431L1927,264Z" fill="#dd6737" stroke="#dd6737" stroke-width="1.51"/><path d="M1783,1149L1836,1270L1950,1159Z" fill="#b80026" stroke="#b80026" stroke-width="1.51"/><path d="M1829,192L1823,445L1927,264Z" fill="#e0703b" stroke="#e0703b" stroke-width="1.51"/><path d="M1823,445L1741,528L1929,592Z" fill="#e05a31" stroke="#e05a31" stroke-width="1.51"/><path d="M1839,69L1829,192L1938,140Z" fill="#e1804b" stroke="#e1804b" stroke-width="1.51"/><path d="M1743,-242L1685,-162L1810,-10Z" fill="#ee9164" stroke="#ee9164" stroke-width="1.51"/><path d="M1741,528L1789,639L1929,592Z" fill="#e0512e" stroke="#e0512e" stroke-width="1.51"/><path d="M1789,639L1809,845L1924,730Z" fill="#dd3329" stroke="#dd3329" stroke-width="1.51"/><path d="M1757,978L1783,1149L1919,1025Z" fill="#c90a23" stroke="#c90a23" stroke-width="1.51"/><path d="M1585,261L1823,445L1829,192Z" fill="#e77339" stroke="#e77339" stroke-width="1.51"/><path d="M1810,-10L1839,69L1879,-18Z" fill="#e58756" stroke="#e58756" stroke-width="1.51"/><path d="M139,1280L-157,1312L612,1338Z" fill="#cb7f56" stroke="#cb7f56" stroke-width="1.51"/><path d="M1789,639L1665,813L1809,845Z" fill="#e23026" stroke="#e23026" stroke-width="1.51"/><path d="M1685,-162L1642,-70L1810,-10Z" fill="#ef905d" stroke="#ef905d" stroke-width="1.51"/><path d="M1585,261L1579,399L1823,445Z" fill="#ec6e33" stroke="#ec6e33" stroke-width="1.51"/><path d="M1783,1149L1664,1287L1836,1270Z" fill="#b70425" stroke="#b70425" stroke-width="1.51"/><path d="M1635,50L1829,192L1839,69Z" fill="#e9854c" stroke="#e9854c" stroke-width="1.51"/><path d="M1810,-10L1635,50L1839,69Z" fill="#ea8953" stroke="#ea8953" stroke-width="1.51"/><path d="M1635,50L1585,261L1829,192Z" fill="#ed8245" stroke="#ed8245" stroke-width="1.51"/><path d="M1579,399L1741,528L1823,445Z" fill="#e86431" stroke="#e86431" stroke-width="1.51"/><path d="M1613,675L1665,813L1789,639Z" fill="#e83d27" stroke="#e83d27" stroke-width="1.51"/><path d="M1665,813L1757,978L1809,845Z" fill="#dc2122" stroke="#dc2122" stroke-width="1.51"/><path d="M1642,-70L1635,50L1810,-10Z" fill="#ef8d56" stroke="#ef8d56" stroke-width="1.51"/><path d="M1489,1258L1365,1321L1664,1287Z" fill="#be1523" stroke="#be1523" stroke-width="1.51"/><path d="M1585,1153L1664,1287L1783,1149Z" fill="#c30824" stroke="#c30824" stroke-width="1.51"/><path d="M1757,978L1612,980L1783,1149Z" fill="#d11022" stroke="#d11022" stroke-width="1.51"/><path d="M1612,980L1585,1153L1783,1149Z" fill="#cf0e22" stroke="#cf0e22" stroke-width="1.51"/><path d="M1741,528L1619,560L1789,639Z" fill="#e7552d" stroke="#e7552d" stroke-width="1.51"/><path d="M1619,560L1613,675L1789,639Z" fill="#e94e2a" stroke="#e94e2a" stroke-width="1.51"/><path d="M1665,813L1612,980L1757,978Z" fill="#dd1b20" stroke="#dd1b20" stroke-width="1.51"/><path d="M1579,399L1619,560L1741,528Z" fill="#ec622e" stroke="#ec622e" stroke-width="1.51"/><path d="M1438,-266L1685,-162L1743,-242Z" fill="#f8996b" stroke="#f8996b" stroke-width="1.51"/><path d="M1438,-266L1642,-70L1685,-162Z" fill="#f99764" stroke="#f99764" stroke-width="1.51"/><path d="M1492,38L1585,261L1635,50Z" fill="#f68a47" stroke="#f68a47" stroke-width="1.51"/><path d="M1438,-266L1388,-189L1642,-70Z" fill="#fe9c67" stroke="#fe9c67" stroke-width="1.51"/><path d="M1585,1153L1489,1258L1664,1287Z" fill="#c40d22" stroke="#c40d22" stroke-width="1.51"/><path d="M1613,675L1481,813L1665,813Z" fill="#ed3523" stroke="#ed3523" stroke-width="1.51"/><path d="M1481,813L1612,980L1665,813Z" fill="#e7271f" stroke="#e7271f" stroke-width="1.51"/><path d="M1492,38L1523,270L1585,261Z" fill="#f78541" stroke="#f78541" stroke-width="1.51"/><path d="M1476,1035L1585,1153L1612,980Z" fill="#d9151f" stroke="#d9151f" stroke-width="1.51"/><path d="M1531,658L1481,813L1613,675Z" fill="#f14025" stroke="#f14025" stroke-width="1.51"/><path d="M1531,658L1613,675L1619,560Z" fill="#ee4f28" stroke="#ee4f28" stroke-width="1.51"/><path d="M1388,-189L1439,-21L1642,-70Z" fill="#fc985e" stroke="#fc985e" stroke-width="1.51"/><path d="M1492,38L1635,50L1642,-70Z" fill="#f68f53" stroke="#f68f53" stroke-width="1.51"/><path d="M1439,-21L1492,38L1642,-70Z" fill="#fa9356" stroke="#fa9356" stroke-width="1.51"/><path d="M1579,399L1477,595L1619,560Z" fill="#f1612c" stroke="#f1612c" stroke-width="1.51"/><path d="M1523,270L1579,399L1585,261Z" fill="#f47735" stroke="#f47735" stroke-width="1.51"/><path d="M1481,813L1476,1035L1612,980Z" fill="#e5211d" stroke="#e5211d" stroke-width="1.51"/><path d="M1477,595L1531,658L1619,560Z" fill="#f15529" stroke="#f15529" stroke-width="1.51"/><path d="M1492,1162L1489,1258L1585,1153Z" fill="#cc1423" stroke="#cc1423" stroke-width="1.51"/><path d="M1476,1035L1492,1162L1585,1153Z" fill="#d61721" stroke="#d61721" stroke-width="1.51"/><path d="M1523,270L1470,362L1579,399Z" fill="#f47533" stroke="#f47533" stroke-width="1.51"/><path d="M1470,362L1477,595L1579,399Z" fill="#f46b2f" stroke="#f46b2f" stroke-width="1.51"/><path d="M529,-259L706,-223L837,-223Z" fill="#ffd486" stroke="#ffd486" stroke-width="1.51"/><path d="M1470,362L1329,552L1477,595Z" fill="#f76b30" stroke="#f76b30" stroke-width="1.51"/><path d="M1373,827L1476,1035L1481,813Z" fill="#eb3120" stroke="#eb3120" stroke-width="1.51"/><path d="M1331,57L1330,256L1492,38Z" fill="#fd944c" stroke="#fd944c" stroke-width="1.51"/><path d="M1492,38L1330,256L1523,270Z" fill="#fa8a44" stroke="#fa8a44" stroke-width="1.51"/><path d="M1310,706L1481,813L1531,658Z" fill="#f54626" stroke="#f54626" stroke-width="1.51"/><path d="M1477,595L1310,706L1531,658Z" fill="#f55329" stroke="#f55329" stroke-width="1.51"/><path d="M1323,384L1329,552L1470,362Z" fill="#fa7534" stroke="#fa7534" stroke-width="1.51"/><path d="M1373,827L1308,999L1476,1035Z" fill="#eb2d20" stroke="#eb2d20" stroke-width="1.51"/><path d="M1330,256L1470,362L1523,270Z" fill="#f87f39" stroke="#f87f39" stroke-width="1.51"/><path d="M1388,-189L1329,-59L1439,-21Z" fill="#ff9e61" stroke="#ff9e61" stroke-width="1.51"/><path d="M1310,706L1373,827L1481,813Z" fill="#f54225" stroke="#f54225" stroke-width="1.51"/><path d="M1372,1174L1489,1258L1492,1162Z" fill="#ce1d24" stroke="#ce1d24" stroke-width="1.51"/><path d="M1476,1035L1372,1174L1492,1162Z" fill="#d72024" stroke="#d72024" stroke-width="1.51"/><path d="M1439,-21L1331,57L1492,38Z" fill="#fd9654" stroke="#fd9654" stroke-width="1.51"/><path d="M1372,1174L1365,1321L1489,1258Z" fill="#c82026" stroke="#c82026" stroke-width="1.51"/><path d="M1066,-222L1233,-160L1438,-266Z" fill="#ffab72" stroke="#ffab72" stroke-width="1.51"/><path d="M1308,999L1372,1174L1476,1035Z" fill="#df2823" stroke="#df2823" stroke-width="1.51"/><path d="M1329,552L1310,706L1477,595Z" fill="#f85e2d" stroke="#f85e2d" stroke-width="1.51"/><path d="M1330,256L1323,384L1470,362Z" fill="#fb7f37" stroke="#fb7f37" stroke-width="1.51"/><path d="M1233,-160L1388,-189L1438,-266Z" fill="#ffa56e" stroke="#ffa56e" stroke-width="1.51"/><path d="M1329,-59L1331,57L1439,-21Z" fill="#ff9b59" stroke="#ff9b59" stroke-width="1.51"/><path d="M1170,134L1330,256L1331,57Z" fill="#ff974c" stroke="#ff974c" stroke-width="1.51"/><path d="M1238,1238L996,1326L1365,1321Z" fill="#c7362b" stroke="#c7362b" stroke-width="1.51"/><path d="M1308,999L1227,1098L1372,1174Z" fill="#e02f26" stroke="#e02f26" stroke-width="1.51"/><path d="M1238,1238L1365,1321L1372,1174Z" fill="#cc2828" stroke="#cc2828" stroke-width="1.51"/><path d="M1239,885L1308,999L1373,827Z" fill="#f13a23" stroke="#f13a23" stroke-width="1.51"/><path d="M1233,-160L1329,-59L1388,-189Z" fill="#ffa467" stroke="#ffa467" stroke-width="1.51"/><path d="M1310,706L1239,885L1373,827Z" fill="#f74527" stroke="#f74527" stroke-width="1.51"/><path d="M1227,1098L1238,1238L1372,1174Z" fill="#da2e28" stroke="#da2e28" stroke-width="1.51"/><path d="M1323,384L1178,524L1329,552Z" fill="#fd7534" stroke="#fd7534" stroke-width="1.51"/><path d="M1183,699L1239,885L1310,706Z" fill="#fb4f2a" stroke="#fb4f2a" stroke-width="1.51"/><path d="M1183,699L1310,706L1329,552Z" fill="#fc5e2d" stroke="#fc5e2d" stroke-width="1.51"/><path d="M1178,524L1183,699L1329,552Z" fill="#fd6c31" stroke="#fd6c31" stroke-width="1.51"/><path d="M1233,-160L1222,-102L1329,-59Z" fill="#ffa566" stroke="#ffa566" stroke-width="1.51"/><path d="M1138,338L1323,384L1330,256Z" fill="#ff853b" stroke="#ff853b" stroke-width="1.51"/><path d="M1157,213L1138,338L1330,256Z" fill="#ff9042" stroke="#ff9042" stroke-width="1.51"/><path d="M1170,134L1157,213L1330,256Z" fill="#ff9649" stroke="#ff9649" stroke-width="1.51"/><path d="M1329,-59L1222,-102L1331,57Z" fill="#ffa05e" stroke="#ffa05e" stroke-width="1.51"/><path d="M1222,-102L1170,134L1331,57Z" fill="#ffa059" stroke="#ffa059" stroke-width="1.51"/><path d="M1138,338L1178,524L1323,384Z" fill="#fe8239" stroke="#fe8239" stroke-width="1.51"/><path d="M1239,885L1151,1014L1308,999Z" fill="#ee3c24" stroke="#ee3c24" stroke-width="1.51"/><path d="M1151,1014L1227,1098L1308,999Z" fill="#e73a26" stroke="#e73a26" stroke-width="1.51"/><path d="M431,1288L139,1280L612,1338Z" fill="#cb784a" stroke="#cb784a" stroke-width="1.51"/><path d="M1138,338L1070,380L1178,524Z" fill="#fe893c" stroke="#fe893c" stroke-width="1.51"/><path d="M1078,703L1027,804L1183,699Z" fill="#fd632f" stroke="#fd632f" stroke-width="1.51"/><path d="M1178,524L1075,558L1183,699Z" fill="#fd7434" stroke="#fd7434" stroke-width="1.51"/><path d="M1012,-89L1170,134L1222,-102Z" fill="#ffac62" stroke="#ffac62" stroke-width="1.51"/><path d="M1227,1098L1084,1179L1238,1238Z" fill="#db3c2b" stroke="#db3c2b" stroke-width="1.51"/><path d="M1084,1179L996,1326L1238,1238Z" fill="#cf432d" stroke="#cf432d" stroke-width="1.51"/><path d="M1058,1005L1151,1014L1239,885Z" fill="#ef4826" stroke="#ef4826" stroke-width="1.51"/><path d="M1027,804L1058,1005L1239,885Z" fill="#f45329" stroke="#f45329" stroke-width="1.51"/><path d="M1183,699L1027,804L1239,885Z" fill="#fa572b" stroke="#fa572b" stroke-width="1.51"/><path d="M1066,-222L1222,-102L1233,-160Z" fill="#ffaf6f" stroke="#ffaf6f" stroke-width="1.51"/><path d="M1151,1014L1084,1179L1227,1098Z" fill="#e3422a" stroke="#e3422a" stroke-width="1.51"/><path d="M1066,-222L1012,-89L1222,-102Z" fill="#ffb46f" stroke="#ffb46f" stroke-width="1.51"/><path d="M1058,1005L1084,1179L1151,1014Z" fill="#e64b2a" stroke="#e64b2a" stroke-width="1.51"/><path d="M1012,-89L1013,143L1170,134Z" fill="#ffae5b" stroke="#ffae5b" stroke-width="1.51"/><path d="M1070,380L1075,558L1178,524Z" fill="#fe8539" stroke="#fe8539" stroke-width="1.51"/><path d="M1075,558L1078,703L1183,699Z" fill="#fd6f32" stroke="#fd6f32" stroke-width="1.51"/><path d="M981,259L1138,338L1157,213Z" fill="#ff9b46" stroke="#ff9b46" stroke-width="1.51"/><path d="M1013,143L1157,213L1170,134Z" fill="#ffa350" stroke="#ffa350" stroke-width="1.51"/><path d="M1013,143L981,259L1157,213Z" fill="#ffa44e" stroke="#ffa44e" stroke-width="1.51"/><path d="M981,259L1070,380L1138,338Z" fill="#fe9842" stroke="#fe9842" stroke-width="1.51"/><path d="M1012,-89L924,103L1013,143Z" fill="#ffb560" stroke="#ffb560" stroke-width="1.51"/><path d="M1027,804L832,998L1058,1005Z" fill="#f25f2b" stroke="#f25f2b" stroke-width="1.51"/><path d="M842,428L846,488L1070,380Z" fill="#fe9a41" stroke="#fe9a41" stroke-width="1.51"/><path d="M1070,380L846,488L1075,558Z" fill="#fe903d" stroke="#fe903d" stroke-width="1.51"/><path d="M1075,558L851,723L1078,703Z" fill="#fd7835" stroke="#fd7835" stroke-width="1.51"/><path d="M1058,1005L832,1175L1084,1179Z" fill="#e1552f" stroke="#e1552f" stroke-width="1.51"/><path d="M832,1175L996,1326L1084,1179Z" fill="#d35331" stroke="#d35331" stroke-width="1.51"/><path d="M832,998L832,1175L1058,1005Z" fill="#e75f30" stroke="#e75f30" stroke-width="1.51"/><path d="M846,488L851,723L1075,558Z" fill="#fd893a" stroke="#fd893a" stroke-width="1.51"/><path d="M851,723L1027,804L1078,703Z" fill="#fd6e32" stroke="#fd6e32" stroke-width="1.51"/><path d="M848,798L832,998L1027,804Z" fill="#f66a30" stroke="#f66a30" stroke-width="1.51"/><path d="M837,-223L1012,-89L1066,-222Z" fill="#ffc178" stroke="#ffc178" stroke-width="1.51"/><path d="M981,259L842,428L1070,380Z" fill="#fe9d43" stroke="#fe9d43" stroke-width="1.51"/><path d="M832,1175L870,1335L996,1326Z" fill="#cb5733" stroke="#cb5733" stroke-width="1.51"/><path d="M833,-66L924,103L1012,-89Z" fill="#ffbd69" stroke="#ffbd69" stroke-width="1.51"/><path d="M851,723L848,798L1027,804Z" fill="#fc7233" stroke="#fc7233" stroke-width="1.51"/><path d="M924,103L854,188L981,259Z" fill="#ffb154" stroke="#ffb154" stroke-width="1.51"/><path d="M837,-223L833,-66L1012,-89Z" fill="#ffc374" stroke="#ffc374" stroke-width="1.51"/><path d="M924,103L981,259L1013,143Z" fill="#ffaf54" stroke="#ffaf54" stroke-width="1.51"/><path d="M783,222L842,428L854,188Z" fill="#fead4d" stroke="#fead4d" stroke-width="1.51"/><path d="M854,188L842,428L981,259Z" fill="#fea84a" stroke="#fea84a" stroke-width="1.51"/><path d="M761,818L832,998L848,798Z" fill="#f77032" stroke="#f77032" stroke-width="1.51"/><path d="M846,488L778,495L851,723Z" fill="#fe923e" stroke="#fe923e" stroke-width="1.51"/><path d="M729,55L854,188L924,103Z" fill="#ffbc5e" stroke="#ffbc5e" stroke-width="1.51"/><path d="M833,-66L729,55L924,103Z" fill="#ffc067" stroke="#ffc067" stroke-width="1.51"/><path d="M832,998L743,1087L832,1175Z" fill="#e66533" stroke="#e66533" stroke-width="1.51"/><path d="M733,-84L833,-66L837,-223Z" fill="#ffc977" stroke="#ffc977" stroke-width="1.51"/><path d="M783,222L684,429L842,428Z" fill="#fea948" stroke="#fea948" stroke-width="1.51"/><path d="M778,495L750,739L851,723Z" fill="#fe893b" stroke="#fe893b" stroke-width="1.51"/><path d="M729,55L783,222L854,188Z" fill="#ffbb5a" stroke="#ffbb5a" stroke-width="1.51"/><path d="M832,1175L726,1337L870,1335Z" fill="#cb5d35" stroke="#cb5d35" stroke-width="1.51"/><path d="M761,818L700,1019L832,998Z" fill="#f36e30" stroke="#f36e30" stroke-width="1.51"/><path d="M706,-223L733,-84L837,-223Z" fill="#ffce7e" stroke="#ffce7e" stroke-width="1.51"/><path d="M842,428L778,495L846,488Z" fill="#fe9c42" stroke="#fe9c42" stroke-width="1.51"/><path d="M750,739L848,798L851,723Z" fill="#fe7a36" stroke="#fe7a36" stroke-width="1.51"/><path d="M733,-84L729,55L833,-66Z" fill="#ffc76e" stroke="#ffc76e" stroke-width="1.51"/><path d="M750,739L761,818L848,798Z" fill="#fc7935" stroke="#fc7935" stroke-width="1.51"/><path d="M586,655L750,739L778,495Z" fill="#fe923f" stroke="#fe923f" stroke-width="1.51"/><path d="M684,429L778,495L842,428Z" fill="#fea144" stroke="#fea144" stroke-width="1.51"/><path d="M626,1113L726,1337L743,1087Z" fill="#dc6937" stroke="#dc6937" stroke-width="1.51"/><path d="M700,1019L743,1087L832,998Z" fill="#eb6a33" stroke="#eb6a33" stroke-width="1.51"/><path d="M743,1087L726,1337L832,1175Z" fill="#d96336" stroke="#d96336" stroke-width="1.51"/><path d="M626,1113L612,1338L726,1337Z" fill="#cf6839" stroke="#cf6839" stroke-width="1.51"/><path d="M534,826L700,1019L761,818Z" fill="#f77935" stroke="#f77935" stroke-width="1.51"/><path d="M684,429L562,519L778,495Z" fill="#fea445" stroke="#fea445" stroke-width="1.51"/><path d="M562,519L586,655L778,495Z" fill="#fe9f44" stroke="#fe9f44" stroke-width="1.51"/><path d="M729,55L600,258L783,222Z" fill="#febe5b" stroke="#febe5b" stroke-width="1.51"/><path d="M600,258L684,429L783,222Z" fill="#feb44e" stroke="#feb44e" stroke-width="1.51"/><path d="M540,119L600,258L729,55Z" fill="#fec762" stroke="#fec762" stroke-width="1.51"/><path d="M750,739L534,826L761,818Z" fill="#fc7f38" stroke="#fc7f38" stroke-width="1.51"/><path d="M275,1261L139,1280L431,1288Z" fill="#d07e51" stroke="#d07e51" stroke-width="1.51"/><path d="M600,258L559,335L684,429Z" fill="#feb54f" stroke="#feb54f" stroke-width="1.51"/><path d="M534,826L591,1033L700,1019Z" fill="#f37836" stroke="#f37836" stroke-width="1.51"/><path d="M568,-75L729,55L733,-84Z" fill="#ffcd71" stroke="#ffcd71" stroke-width="1.51"/><path d="M586,655L534,826L750,739Z" fill="#ff883d" stroke="#ff883d" stroke-width="1.51"/><path d="M706,-223L568,-75L733,-84Z" fill="#ffd17b" stroke="#ffd17b" stroke-width="1.51"/><path d="M700,1019L626,1113L743,1087Z" fill="#e86d35" stroke="#e86d35" stroke-width="1.51"/><path d="M568,-75L540,119L729,55Z" fill="#ffcd6e" stroke="#ffcd6e" stroke-width="1.51"/><path d="M591,1033L626,1113L700,1019Z" fill="#ea7237" stroke="#ea7237" stroke-width="1.51"/><path d="M529,-259L568,-75L706,-223Z" fill="#ffd886" stroke="#ffd886" stroke-width="1.51"/><path d="M490,65L540,119L568,-75Z" fill="#ffd374" stroke="#ffd374" stroke-width="1.51"/><path d="M559,335L562,519L684,429Z" fill="#feae4c" stroke="#feae4c" stroke-width="1.51"/><path d="M90,-227L335,-163L529,-259Z" fill="#ffea9d" stroke="#ffea9d" stroke-width="1.51"/><path d="M529,-259L462,-116L568,-75Z" fill="#ffdb88" stroke="#ffdb88" stroke-width="1.51"/><path d="M475,727L534,826L586,655Z" fill="#ff8f44" stroke="#ff8f44" stroke-width="1.51"/><path d="M591,1033L408,1110L626,1113Z" fill="#e8773e" stroke="#e8773e" stroke-width="1.51"/><path d="M408,1110L431,1288L626,1113Z" fill="#df7743" stroke="#df7743" stroke-width="1.51"/><path d="M431,1288L612,1338L626,1113Z" fill="#d3703f" stroke="#d3703f" stroke-width="1.51"/><path d="M444,-175L462,-116L529,-259Z" fill="#ffe08e" stroke="#ffe08e" stroke-width="1.51"/><path d="M562,519L475,542L586,655Z" fill="#ffa44b" stroke="#ffa44b" stroke-width="1.51"/><path d="M534,826L385,1036L591,1033Z" fill="#f47f3d" stroke="#f47f3d" stroke-width="1.51"/><path d="M396,844L385,1036L534,826Z" fill="#f98843" stroke="#f98843" stroke-width="1.51"/><path d="M559,335L475,542L562,519Z" fill="#ffaf50" stroke="#ffaf50" stroke-width="1.51"/><path d="M397,232L559,335L600,258Z" fill="#ffc15c" stroke="#ffc15c" stroke-width="1.51"/><path d="M540,119L397,232L600,258Z" fill="#ffc864" stroke="#ffc864" stroke-width="1.51"/><path d="M396,335L475,542L559,335Z" fill="#ffb856" stroke="#ffb856" stroke-width="1.51"/><path d="M385,1036L408,1110L591,1033Z" fill="#eb7e43" stroke="#eb7e43" stroke-width="1.51"/><path d="M475,542L475,727L586,655Z" fill="#ff9d49" stroke="#ff9d49" stroke-width="1.51"/><path d="M397,232L396,335L559,335Z" fill="#ffc35e" stroke="#ffc35e" stroke-width="1.51"/><path d="M462,-116L490,65L568,-75Z" fill="#ffd77e" stroke="#ffd77e" stroke-width="1.51"/><path d="M396,335L331,403L475,542Z" fill="#ffbb5a" stroke="#ffbb5a" stroke-width="1.51"/><path d="M335,-163L444,-175L529,-259Z" fill="#ffe393" stroke="#ffe393" stroke-width="1.51"/><path d="M490,65L397,232L540,119Z" fill="#ffd16d" stroke="#ffd16d" stroke-width="1.51"/><path d="M475,727L396,844L534,826Z" fill="#fe8e45" stroke="#fe8e45" stroke-width="1.51"/><path d="M475,542L331,591L475,727Z" fill="#ffa550" stroke="#ffa550" stroke-width="1.51"/><path d="M276,115L397,232L490,65Z" fill="#fed673" stroke="#fed673" stroke-width="1.51"/><path d="M462,-116L273,-32L490,65Z" fill="#ffdd83" stroke="#ffdd83" stroke-width="1.51"/><path d="M273,-32L276,115L490,65Z" fill="#ffdd7f" stroke="#ffdd7f" stroke-width="1.51"/><path d="M331,403L331,591L475,542Z" fill="#ffb558" stroke="#ffb558" stroke-width="1.51"/><path d="M331,591L238,671L475,727Z" fill="#ffa554" stroke="#ffa554" stroke-width="1.51"/><path d="M238,671L281,817L475,727Z" fill="#ff9c51" stroke="#ff9c51" stroke-width="1.51"/><path d="M281,817L396,844L475,727Z" fill="#ff954b" stroke="#ff954b" stroke-width="1.51"/><path d="M408,1110L315,1114L431,1288Z" fill="#e07f4a" stroke="#e07f4a" stroke-width="1.51"/><path d="M315,1114L275,1261L431,1288Z" fill="#d87e4d" stroke="#d87e4d" stroke-width="1.51"/><path d="M444,-175L335,-163L462,-116Z" fill="#ffe28f" stroke="#ffe28f" stroke-width="1.51"/><path d="M335,-163L273,-32L462,-116Z" fill="#ffe48e" stroke="#ffe48e" stroke-width="1.51"/><path d="M244,1013L385,1036L396,844Z" fill="#f58a48" stroke="#f58a48" stroke-width="1.51"/><path d="M281,817L244,1013L396,844Z" fill="#fa914d" stroke="#fa914d" stroke-width="1.51"/><path d="M249,225L396,335L397,232Z" fill="#ffcd69" stroke="#ffcd69" stroke-width="1.51"/><path d="M276,115L249,225L397,232Z" fill="#ffd573" stroke="#ffd573" stroke-width="1.51"/><path d="M385,1036L315,1114L408,1110Z" fill="#e98449" stroke="#e98449" stroke-width="1.51"/><path d="M249,225L331,403L396,335Z" fill="#ffc865" stroke="#ffc865" stroke-width="1.51"/><path d="M244,1013L315,1114L385,1036Z" fill="#ed874c" stroke="#ed874c" stroke-width="1.51"/><path d="M180,1190L275,1261L315,1114Z" fill="#df8352" stroke="#df8352" stroke-width="1.51"/><path d="M97,594L238,671L331,591Z" fill="#ffae5e" stroke="#ffae5e" stroke-width="1.51"/><path d="M97,594L331,591L331,403Z" fill="#ffb861" stroke="#ffb861" stroke-width="1.51"/><path d="M97,371L97,594L331,403Z" fill="#ffc169" stroke="#ffc169" stroke-width="1.51"/><path d="M249,225L97,371L331,403Z" fill="#ffca6b" stroke="#ffca6b" stroke-width="1.51"/><path d="M90,-227L273,-32L335,-163Z" fill="#ffe99b" stroke="#ffe99b" stroke-width="1.51"/><path d="M177,787L88,953L244,1013Z" fill="#fa9355" stroke="#fa9355" stroke-width="1.51"/><path d="M90,-227L113,-29L273,-32Z" fill="#ffea9b" stroke="#ffea9b" stroke-width="1.51"/><path d="M177,787L244,1013L281,817Z" fill="#fc9452" stroke="#fc9452" stroke-width="1.51"/><path d="M238,671L177,787L281,817Z" fill="#ff9d57" stroke="#ff9d57" stroke-width="1.51"/><path d="M244,1013L180,1190L315,1114Z" fill="#e98852" stroke="#e98852" stroke-width="1.51"/><path d="M97,103L249,225L276,115Z" fill="#ffdc7f" stroke="#ffdc7f" stroke-width="1.51"/><path d="M273,-32L113,-29L276,115Z" fill="#ffe38b" stroke="#ffe38b" stroke-width="1.51"/><path d="M113,-29L97,103L276,115Z" fill="#ffe28b" stroke="#ffe28b" stroke-width="1.51"/><path d="M180,1190L139,1280L275,1261Z" fill="#d68256" stroke="#d68256" stroke-width="1.51"/><path d="M88,953L180,1190L244,1013Z" fill="#ef8c56" stroke="#ef8c56" stroke-width="1.51"/><path d="M97,103L82,211L249,225Z" fill="#ffdb80" stroke="#ffdb80" stroke-width="1.51"/><path d="M82,211L97,371L249,225Z" fill="#ffd277" stroke="#ffd277" stroke-width="1.51"/><path d="M90,734L177,787L238,671Z" fill="#ffa35d" stroke="#ffa35d" stroke-width="1.51"/><path d="M-20,1243L-157,1312L139,1280Z" fill="#d28764" stroke="#d28764" stroke-width="1.51"/><path d="M88,953L9,1001L180,1190Z" fill="#f08f5b" stroke="#f08f5b" stroke-width="1.51"/><path d="M97,594L90,734L238,671Z" fill="#ffac62" stroke="#ffac62" stroke-width="1.51"/><path d="M-15,540L97,594L97,371Z" fill="#ffc16f" stroke="#ffc16f" stroke-width="1.51"/><path d="M90,-227L5,-174L113,-29Z" fill="#ffefa7" stroke="#ffefa7" stroke-width="1.51"/><path d="M90,734L88,953L177,787Z" fill="#ff9c5c" stroke="#ff9c5c" stroke-width="1.51"/><path d="M9,1001L-2,1169L180,1190Z" fill="#e98d5e" stroke="#e98d5e" stroke-width="1.51"/><path d="M-2,1169L139,1280L180,1190Z" fill="#dc875c" stroke="#dc875c" stroke-width="1.51"/><path d="M-45,829L88,953L90,734Z" fill="#ff9e61" stroke="#ff9e61" stroke-width="1.51"/><path d="M-12,267L2,345L82,211Z" fill="#ffd67f" stroke="#ffd67f" stroke-width="1.51"/><path d="M-214,-192L5,-174L90,-227Z" fill="#fff5b4" stroke="#fff5b4" stroke-width="1.51"/><path d="M5,736L-45,829L90,734Z" fill="#ffa465" stroke="#ffa465" stroke-width="1.51"/><path d="M82,211L2,345L97,371Z" fill="#ffd279" stroke="#ffd279" stroke-width="1.51"/><path d="M-2,1169L-20,1243L139,1280Z" fill="#d98860" stroke="#d98860" stroke-width="1.51"/><path d="M5,736L90,734L97,594Z" fill="#ffab66" stroke="#ffab66" stroke-width="1.51"/><path d="M2,345L-15,540L97,371Z" fill="#ffc975" stroke="#ffc975" stroke-width="1.51"/><path d="M36,123L82,211L97,103Z" fill="#ffe188" stroke="#ffe188" stroke-width="1.51"/><path d="M36,123L97,103L113,-29Z" fill="#ffe590" stroke="#ffe590" stroke-width="1.51"/><path d="M-39,-54L36,123L113,-29Z" fill="#ffe998" stroke="#ffe998" stroke-width="1.51"/><path d="M5,-174L-39,-54L113,-29Z" fill="#ffeea3" stroke="#ffeea3" stroke-width="1.51"/><path d="M-45,829L9,1001L88,953Z" fill="#fb985f" stroke="#fb985f" stroke-width="1.51"/><path d="M-15,540L5,736L97,594Z" fill="#ffb46c" stroke="#ffb46c" stroke-width="1.51"/><path d="M36,123L-12,267L82,211Z" fill="#ffdc86" stroke="#ffdc86" stroke-width="1.51"/><path d="M-127,344L-15,540L2,345Z" fill="#ffcc7b" stroke="#ffcc7b" stroke-width="1.51"/><path d="M-15,540L-155,590L5,736Z" fill="#ffb772" stroke="#ffb772" stroke-width="1.51"/><path d="M-155,590L-147,719L5,736Z" fill="#ffb172" stroke="#ffb172" stroke-width="1.51"/><path d="M-45,829L-148,939L9,1001Z" fill="#fd9a65" stroke="#fd9a65" stroke-width="1.51"/><path d="M-118,1091L-2,1169L9,1001Z" fill="#ed9164" stroke="#ed9164" stroke-width="1.51"/><path d="M-39,-54L-176,-11L36,123Z" fill="#ffeb9f" stroke="#ffeb9f" stroke-width="1.51"/><path d="M-176,-11L-210,141L36,123Z" fill="#ffea9d" stroke="#ffea9d" stroke-width="1.51"/><path d="M-203,194L-12,267L36,123Z" fill="#ffe08d" stroke="#ffe08d" stroke-width="1.51"/><path d="M-210,141L-203,194L36,123Z" fill="#ffe696" stroke="#ffe696" stroke-width="1.51"/><path d="M-148,939L-118,1091L9,1001Z" fill="#f59666" stroke="#f59666" stroke-width="1.51"/><path d="M-127,344L-155,590L-15,540Z" fill="#ffc67b" stroke="#ffc67b" stroke-width="1.51"/><path d="M-12,267L-127,344L2,345Z" fill="#ffd47f" stroke="#ffd47f" stroke-width="1.51"/><path d="M-147,719L-45,829L5,736Z" fill="#ffa66b" stroke="#ffa66b" stroke-width="1.51"/><path d="M-214,-192L-39,-54L5,-174Z" fill="#fff4b1" stroke="#fff4b1" stroke-width="1.51"/><path d="M-118,1091L-20,1243L-2,1169Z" fill="#e48e66" stroke="#e48e66" stroke-width="1.51"/><path d="M-158,873L-148,939L-45,829Z" fill="#ff9f6a" stroke="#ff9f6a" stroke-width="1.51"/><path d="M-203,194L-127,344L-12,267Z" fill="#ffda8a" stroke="#ffda8a" stroke-width="1.51"/><path d="M-118,1091L-157,1312L-20,1243Z" fill="#dd8d69" stroke="#dd8d69" stroke-width="1.51"/><path d="M-214,-192L-176,-11L-39,-54Z" fill="#fff3b0" stroke="#fff3b0" stroke-width="1.51"/><path d="M-147,719L-158,873L-45,829Z" fill="#ffa56d" stroke="#ffa56d" stroke-width="1.51"/><path d="M-203,194L-155,590L-127,344Z" fill="#ffd285" stroke="#ffd285" stroke-width="1.51"/><path d="M-148,939L-157,1312L-118,1091Z" fill="#eb936b" stroke="#eb936b" stroke-width="1.51"/><path d="M-158,873L-157,1312L-148,939Z" fill="#f3976b" stroke="#f3976b" stroke-width="1.51"/><path d="M-155,590L-158,873L-147,719Z" fill="#ffad73" stroke="#ffad73" stroke-width="1.51"/><path d="M-158,873L-210,141L-157,1312Z" fill="#ffa972" stroke="#ffa972" stroke-width="1.51"/><path d="M-203,194L-158,873L-155,590Z" fill="#ffc37e" stroke="#ffc37e" stroke-width="1.51"/><path d="M-203,194L-210,141L-158,873Z" fill="#ffd186" stroke="#ffd186" stroke-width="1.51"/><path d="M-214,-192L-210,141L-176,-11Z" fill="#fff2ad" stroke="#fff2ad" stroke-width="1.51"/></svg>